<mxfile host="app.diagrams.net" agent="Mozilla/5.0 (Windows NT 10.0; Win64; x64) AppleWebKit/537.36 (KHTML, like Gecko) Chrome/132.0.0.0 Safari/537.36" version="26.0.10">
  <diagram id="l8hXMBHkgcEJcSW0mbfh" name="Page-1">
    <mxGraphModel dx="3591" dy="2151" grid="1" gridSize="10" guides="1" tooltips="1" connect="1" arrows="1" fold="1" page="0" pageScale="1" pageWidth="827" pageHeight="583" math="0" shadow="0">
      <root>
        <mxCell id="0" />
        <mxCell id="1" parent="0" />
        <mxCell id="8--HhbSZYtI3ddgJnD71-37" style="edgeStyle=none;rounded=0;orthogonalLoop=1;jettySize=auto;html=1;sourcePerimeterSpacing=5;endArrow=none;endFill=0;targetPerimeterSpacing=5;exitX=1;exitY=0;exitDx=0;exitDy=0;entryX=0.5;entryY=1;entryDx=0;entryDy=0;" parent="1" target="8--HhbSZYtI3ddgJnD71-10" edge="1" source="axStD_DV7LErkX4Y_dTy-26">
          <mxGeometry relative="1" as="geometry">
            <mxPoint x="499" y="324.6771428571428" as="sourcePoint" />
          </mxGeometry>
        </mxCell>
        <mxCell id="8--HhbSZYtI3ddgJnD71-10" value="Storage" style="shape=image;verticalLabelPosition=bottom;verticalAlign=top;imageAspect=0;aspect=fixed;image=data:image/svg+xml,PHN2ZyB4bWxucz0iaHR0cDovL3d3dy53My5vcmcvMjAwMC9zdmciIHZlcnNpb249IjEiIHZpZXdCb3g9IjAgMCA0OCA0OCIgZW5hYmxlLWJhY2tncm91bmQ9Im5ldyAwIDAgNDggNDgiPiYjeGE7ICAgIDxyZWN0IHg9IjEyIiB5PSI0NCIgZmlsbD0iIzI2MzIzOCIgd2lkdGg9IjQiIGhlaWdodD0iMiIvPiYjeGE7ICAgIDxyZWN0IHg9IjMyIiB5PSI0NCIgZmlsbD0iIzI2MzIzOCIgd2lkdGg9IjQiIGhlaWdodD0iMiIvPiYjeGE7ICAgIDxwYXRoIGZpbGw9IiM2MDdEOEIiIGQ9Ik04LDQxVjdjMC0yLjIsMS44LTQsNC00aDI0YzIuMiwwLDQsMS44LDQsNHYzNGMwLDIuMi0xLjgsNC00LDRIMTJDOS44LDQ1LDgsNDMuMiw4LDQxeiIvPiYjeGE7ICAgIDxwYXRoIGZpbGw9IiNCMEJFQzUiIGQ9Ik0xMiwxN1Y4YzAtMC42LDAuNC0xLDEtMWgyMmMwLjYsMCwxLDAuNCwxLDF2OUgxMnoiLz4mI3hhOyAgICA8cmVjdCB4PSIxMiIgeT0iMTkiIGZpbGw9IiNCMEJFQzUiIHdpZHRoPSIyNCIgaGVpZ2h0PSIxMCIvPiYjeGE7ICAgIDxwYXRoIGZpbGw9IiNCMEJFQzUiIGQ9Ik0xMiw0MHYtOWgyNHY5YzAsMC42LTAuNCwxLTEsMUgxM0MxMi40LDQxLDEyLDQwLjYsMTIsNDB6Ii8+JiN4YTsgICAgPHJlY3QgeD0iMjAiIHk9IjExIiBmaWxsPSIjNTQ2RTdBIiB3aWR0aD0iOCIgaGVpZ2h0PSIyIi8+JiN4YTsgICAgPHJlY3QgeD0iMjAiIHk9IjIzIiBmaWxsPSIjNTQ2RTdBIiB3aWR0aD0iOCIgaGVpZ2h0PSIyIi8+JiN4YTsgICAgPHJlY3QgeD0iMjAiIHk9IjM1IiBmaWxsPSIjNTQ2RTdBIiB3aWR0aD0iOCIgaGVpZ2h0PSIyIi8+JiN4YTs8L3N2Zz4=;labelBackgroundColor=#ffffff;fontColor=none;noLabel=1;" parent="1" vertex="1">
          <mxGeometry x="774" y="120" width="48" height="48" as="geometry" />
        </mxCell>
        <mxCell id="A5XyS65-MMVEptwIIjuN-5" style="edgeStyle=none;rounded=0;orthogonalLoop=1;jettySize=auto;html=1;sourcePerimeterSpacing=5;endArrow=none;endFill=0;targetPerimeterSpacing=5;exitX=0;exitY=0;exitDx=0;exitDy=0;entryX=0.5;entryY=1;entryDx=0;entryDy=0;" parent="1" source="axStD_DV7LErkX4Y_dTy-29" target="8--HhbSZYtI3ddgJnD71-10" edge="1">
          <mxGeometry relative="1" as="geometry">
            <mxPoint x="1141" y="324.6771428571428" as="sourcePoint" />
            <mxPoint x="1003" y="200" as="targetPoint" />
          </mxGeometry>
        </mxCell>
        <mxCell id="A5XyS65-MMVEptwIIjuN-8" style="edgeStyle=none;rounded=0;orthogonalLoop=1;jettySize=auto;html=1;sourcePerimeterSpacing=5;endArrow=none;endFill=0;targetPerimeterSpacing=5;exitX=1;exitY=0;exitDx=0;exitDy=0;entryX=0.5;entryY=1;entryDx=0;entryDy=0;" parent="1" target="8--HhbSZYtI3ddgJnD71-10" edge="1" source="axStD_DV7LErkX4Y_dTy-27">
          <mxGeometry relative="1" as="geometry">
            <mxPoint x="717.4000000000001" y="315" as="sourcePoint" />
            <mxPoint x="813" y="223" as="targetPoint" />
          </mxGeometry>
        </mxCell>
        <mxCell id="A5XyS65-MMVEptwIIjuN-12" style="edgeStyle=none;rounded=0;orthogonalLoop=1;jettySize=auto;html=1;sourcePerimeterSpacing=5;endArrow=none;endFill=0;targetPerimeterSpacing=5;exitX=0;exitY=0;exitDx=0;exitDy=0;entryX=0.5;entryY=1;entryDx=0;entryDy=0;" parent="1" target="8--HhbSZYtI3ddgJnD71-10" edge="1" source="axStD_DV7LErkX4Y_dTy-28">
          <mxGeometry relative="1" as="geometry">
            <mxPoint x="939.3908629441626" y="312" as="sourcePoint" />
            <mxPoint x="1003" y="190" as="targetPoint" />
          </mxGeometry>
        </mxCell>
        <mxCell id="A5XyS65-MMVEptwIIjuN-15" style="edgeStyle=none;rounded=0;orthogonalLoop=1;jettySize=auto;html=1;sourcePerimeterSpacing=5;endArrow=none;endFill=0;targetPerimeterSpacing=5;exitX=1;exitY=0;exitDx=0;exitDy=0;entryX=0.415;entryY=0.951;entryDx=0;entryDy=0;entryPerimeter=0;" parent="1" edge="1" target="axStD_DV7LErkX4Y_dTy-26" source="axStD_DV7LErkX4Y_dTy-32">
          <mxGeometry relative="1" as="geometry">
            <mxPoint x="160" y="446" as="sourcePoint" />
            <mxPoint x="231" y="368.94927536231876" as="targetPoint" />
          </mxGeometry>
        </mxCell>
        <mxCell id="A5XyS65-MMVEptwIIjuN-17" style="edgeStyle=none;rounded=0;orthogonalLoop=1;jettySize=auto;html=1;sourcePerimeterSpacing=5;endArrow=none;endFill=0;targetPerimeterSpacing=5;entryX=0.412;entryY=0.951;entryDx=0;entryDy=0;exitX=0.75;exitY=0;exitDx=0;exitDy=0;entryPerimeter=0;" parent="1" edge="1" target="axStD_DV7LErkX4Y_dTy-26" source="axStD_DV7LErkX4Y_dTy-31">
          <mxGeometry relative="1" as="geometry">
            <mxPoint x="297.5338345864666" y="445" as="sourcePoint" />
            <mxPoint x="270.4661654135341" y="369.9999999999998" as="targetPoint" />
          </mxGeometry>
        </mxCell>
        <mxCell id="A5XyS65-MMVEptwIIjuN-19" style="edgeStyle=none;rounded=0;orthogonalLoop=1;jettySize=auto;html=1;sourcePerimeterSpacing=5;endArrow=none;endFill=0;targetPerimeterSpacing=5;exitX=1;exitY=0;exitDx=0;exitDy=0;entryX=0.5;entryY=1;entryDx=0;entryDy=0;" parent="1" edge="1" target="axStD_DV7LErkX4Y_dTy-27" source="axStD_DV7LErkX4Y_dTy-30">
          <mxGeometry relative="1" as="geometry">
            <mxPoint x="555.5049504950498" y="446" as="sourcePoint" />
            <mxPoint x="594" y="374" as="targetPoint" />
          </mxGeometry>
        </mxCell>
        <mxCell id="A5XyS65-MMVEptwIIjuN-21" style="edgeStyle=none;rounded=0;orthogonalLoop=1;jettySize=auto;html=1;sourcePerimeterSpacing=5;endArrow=none;endFill=0;targetPerimeterSpacing=5;exitX=0;exitY=0;exitDx=0;exitDy=0;entryX=0.5;entryY=1;entryDx=0;entryDy=0;" parent="1" edge="1" target="axStD_DV7LErkX4Y_dTy-27" source="axStD_DV7LErkX4Y_dTy-34">
          <mxGeometry relative="1" as="geometry">
            <mxPoint x="647.3762376237626" y="446" as="sourcePoint" />
            <mxPoint x="621" y="374" as="targetPoint" />
          </mxGeometry>
        </mxCell>
        <mxCell id="A5XyS65-MMVEptwIIjuN-23" style="edgeStyle=none;rounded=0;orthogonalLoop=1;jettySize=auto;html=1;sourcePerimeterSpacing=5;endArrow=none;endFill=0;targetPerimeterSpacing=5;entryX=0.5;entryY=1;entryDx=0;entryDy=0;" parent="1" edge="1" target="axStD_DV7LErkX4Y_dTy-28">
          <mxGeometry relative="1" as="geometry">
            <mxPoint x="1072.33" y="438" as="sourcePoint" />
            <mxPoint x="1107.33" y="366" as="targetPoint" />
          </mxGeometry>
        </mxCell>
        <mxCell id="A5XyS65-MMVEptwIIjuN-25" style="edgeStyle=none;rounded=0;orthogonalLoop=1;jettySize=auto;html=1;sourcePerimeterSpacing=5;endArrow=none;endFill=0;targetPerimeterSpacing=5;exitX=0;exitY=0;exitDx=0;exitDy=0;entryX=0.5;entryY=1;entryDx=0;entryDy=0;" parent="1" edge="1" target="axStD_DV7LErkX4Y_dTy-28" source="axStD_DV7LErkX4Y_dTy-36">
          <mxGeometry relative="1" as="geometry">
            <mxPoint x="1171.0607692307694" y="438" as="sourcePoint" />
            <mxPoint x="1139.33" y="363" as="targetPoint" />
          </mxGeometry>
        </mxCell>
        <mxCell id="A5XyS65-MMVEptwIIjuN-27" style="edgeStyle=none;rounded=0;orthogonalLoop=1;jettySize=auto;html=1;sourcePerimeterSpacing=5;endArrow=none;endFill=0;targetPerimeterSpacing=5;entryX=0.5;entryY=1;entryDx=0;entryDy=0;exitX=0.5;exitY=0;exitDx=0;exitDy=0;" parent="1" edge="1" target="axStD_DV7LErkX4Y_dTy-29" source="axStD_DV7LErkX4Y_dTy-37">
          <mxGeometry relative="1" as="geometry">
            <mxPoint x="1664.467889908257" y="465" as="sourcePoint" />
            <mxPoint x="1663" y="384.9999999999998" as="targetPoint" />
          </mxGeometry>
        </mxCell>
        <mxCell id="A5XyS65-MMVEptwIIjuN-29" style="edgeStyle=none;rounded=0;orthogonalLoop=1;jettySize=auto;html=1;sourcePerimeterSpacing=5;endArrow=none;endFill=0;targetPerimeterSpacing=5;entryX=0.5;entryY=1;entryDx=0;entryDy=0;exitX=0;exitY=0.5;exitDx=0;exitDy=0;" parent="1" edge="1" target="axStD_DV7LErkX4Y_dTy-29" source="axStD_DV7LErkX4Y_dTy-38">
          <mxGeometry relative="1" as="geometry">
            <mxPoint x="1786" y="469.3046875" as="sourcePoint" />
            <mxPoint x="1687" y="384.9999999999998" as="targetPoint" />
          </mxGeometry>
        </mxCell>
        <mxCell id="A5XyS65-MMVEptwIIjuN-31" value="&lt;font style=&quot;font-size: 25px;&quot;&gt;&lt;b&gt;instituto.local&lt;/b&gt;&lt;/font&gt;" style="text;strokeColor=none;align=center;fillColor=none;html=1;verticalAlign=middle;whiteSpace=wrap;rounded=0;" parent="1" vertex="1">
          <mxGeometry x="774" y="80" width="60" height="30" as="geometry" />
        </mxCell>
        <mxCell id="A5XyS65-MMVEptwIIjuN-32" value="&lt;font style=&quot;font-size: 25px;&quot;&gt;&lt;b&gt;ASIR&lt;/b&gt;&lt;/font&gt;" style="text;strokeColor=none;align=center;fillColor=none;html=1;verticalAlign=middle;whiteSpace=wrap;rounded=0;" parent="1" vertex="1">
          <mxGeometry x="202" y="270" width="60" height="30" as="geometry" />
        </mxCell>
        <mxCell id="A5XyS65-MMVEptwIIjuN-34" value="&lt;font style=&quot;font-size: 25px;&quot;&gt;&lt;b&gt;DAW&lt;/b&gt;&lt;/font&gt;" style="text;strokeColor=none;align=center;fillColor=none;html=1;verticalAlign=middle;whiteSpace=wrap;rounded=0;" parent="1" vertex="1">
          <mxGeometry x="556" y="285" width="60" height="30" as="geometry" />
        </mxCell>
        <mxCell id="A5XyS65-MMVEptwIIjuN-35" value="&lt;font style=&quot;font-size: 25px;&quot;&gt;&lt;b&gt;DAM&lt;/b&gt;&lt;/font&gt;" style="text;strokeColor=none;align=center;fillColor=none;html=1;verticalAlign=middle;whiteSpace=wrap;rounded=0;" parent="1" vertex="1">
          <mxGeometry x="1104.33" y="277" width="60" height="30" as="geometry" />
        </mxCell>
        <mxCell id="A5XyS65-MMVEptwIIjuN-36" value="&lt;font style=&quot;font-size: 25px;&quot;&gt;&lt;b&gt;SMR&lt;/b&gt;&lt;/font&gt;" style="text;strokeColor=none;align=center;fillColor=none;html=1;verticalAlign=middle;whiteSpace=wrap;rounded=0;" parent="1" vertex="1">
          <mxGeometry x="1651" y="300" width="60" height="30" as="geometry" />
        </mxCell>
        <mxCell id="A5XyS65-MMVEptwIIjuN-37" value="&lt;font style=&quot;font-size: 25px;&quot;&gt;&lt;b&gt;1º&lt;/b&gt;&lt;/font&gt;" style="text;strokeColor=none;align=center;fillColor=none;html=1;verticalAlign=middle;whiteSpace=wrap;rounded=0;" parent="1" vertex="1">
          <mxGeometry x="-164" y="421" width="60" height="30" as="geometry" />
        </mxCell>
        <mxCell id="A5XyS65-MMVEptwIIjuN-38" value="&lt;font style=&quot;font-size: 25px;&quot;&gt;&lt;b&gt;2º&lt;/b&gt;&lt;/font&gt;" style="text;strokeColor=none;align=center;fillColor=none;html=1;verticalAlign=middle;whiteSpace=wrap;rounded=0;" parent="1" vertex="1">
          <mxGeometry x="258" y="422" width="60" height="30" as="geometry" />
        </mxCell>
        <mxCell id="A5XyS65-MMVEptwIIjuN-39" value="&lt;font style=&quot;font-size: 25px;&quot;&gt;&lt;b&gt;1º&lt;/b&gt;&lt;/font&gt;" style="text;strokeColor=none;align=center;fillColor=none;html=1;verticalAlign=middle;whiteSpace=wrap;rounded=0;" parent="1" vertex="1">
          <mxGeometry x="450" y="418" width="60" height="30" as="geometry" />
        </mxCell>
        <mxCell id="A5XyS65-MMVEptwIIjuN-40" value="&lt;font style=&quot;font-size: 25px;&quot;&gt;&lt;b&gt;1º&lt;/b&gt;&lt;/font&gt;" style="text;strokeColor=none;align=center;fillColor=none;html=1;verticalAlign=middle;whiteSpace=wrap;rounded=0;" parent="1" vertex="1">
          <mxGeometry x="982.33" y="410" width="60" height="30" as="geometry" />
        </mxCell>
        <mxCell id="A5XyS65-MMVEptwIIjuN-41" value="&lt;font style=&quot;font-size: 25px;&quot;&gt;&lt;b&gt;1º&lt;/b&gt;&lt;/font&gt;" style="text;strokeColor=none;align=center;fillColor=none;html=1;verticalAlign=middle;whiteSpace=wrap;rounded=0;" parent="1" vertex="1">
          <mxGeometry x="1560" y="437" width="60" height="30" as="geometry" />
        </mxCell>
        <mxCell id="A5XyS65-MMVEptwIIjuN-42" value="&lt;font style=&quot;font-size: 25px;&quot;&gt;&lt;b&gt;2º&lt;/b&gt;&lt;/font&gt;" style="text;strokeColor=none;align=center;fillColor=none;html=1;verticalAlign=middle;whiteSpace=wrap;rounded=0;" parent="1" vertex="1">
          <mxGeometry x="715" y="418" width="60" height="30" as="geometry" />
        </mxCell>
        <mxCell id="A5XyS65-MMVEptwIIjuN-43" value="&lt;font style=&quot;font-size: 25px;&quot;&gt;&lt;b&gt;2º&lt;/b&gt;&lt;/font&gt;" style="text;strokeColor=none;align=center;fillColor=none;html=1;verticalAlign=middle;whiteSpace=wrap;rounded=0;" parent="1" vertex="1">
          <mxGeometry x="1238" y="410" width="60" height="30" as="geometry" />
        </mxCell>
        <mxCell id="A5XyS65-MMVEptwIIjuN-44" value="&lt;font style=&quot;font-size: 25px;&quot;&gt;&lt;b&gt;2º&lt;/b&gt;&lt;/font&gt;" style="text;strokeColor=none;align=center;fillColor=none;html=1;verticalAlign=middle;whiteSpace=wrap;rounded=0;" parent="1" vertex="1">
          <mxGeometry x="1865" y="413" width="60" height="30" as="geometry" />
        </mxCell>
        <mxCell id="A5XyS65-MMVEptwIIjuN-45" value="" style="shape=image;verticalLabelPosition=bottom;verticalAlign=top;imageAspect=0;aspect=fixed;image=data:image/svg+xml,PHN2ZyB4bWxucz0iaHR0cDovL3d3dy53My5vcmcvMjAwMC9zdmciIHZlcnNpb249IjEiIHZpZXdCb3g9IjAgMCA0OCA0OCIgZW5hYmxlLWJhY2tncm91bmQ9Im5ldyAwIDAgNDggNDgiPiYjeGE7ICAgIDxwYXRoIGZpbGw9IiM1NDZFN0EiIGQ9Ik00NCwzMEg0VjExYzAtMi4yLDEuOC00LDQtNGgzMmMyLjIsMCw0LDEuOCw0LDRWMzB6Ii8+JiN4YTsgICAgPHBhdGggZmlsbD0iIzY0QjVGNiIgZD0iTTQwLDI3SDhjLTAuNiwwLTEtMC40LTEtMVYxMWMwLTAuNiwwLjQtMSwxLTFoMzJjMC42LDAsMSwwLjQsMSwxdjE1QzQxLDI2LjYsNDAuNiwyNyw0MCwyN3oiLz4mI3hhOyAgICA8cGF0aCBmaWxsPSIjNzg5MDlDIiBkPSJNNDAsNDFIOGMtMi4yLDAtNC0xLjgtNC00di03aDQwdjdDNDQsMzkuMiw0Mi4yLDQxLDQwLDQxeiIvPiYjeGE7ICAgIDxnIGZpbGw9IiMzNzQ3NEYiPiYjeGE7ICAgICAgICA8cmVjdCB4PSIyNyIgeT0iMzQiIHdpZHRoPSIxMiIgaGVpZ2h0PSIyIi8+JiN4YTsgICAgICAgIDxyZWN0IHg9IjkiIHk9IjM0IiB3aWR0aD0iMTIiIGhlaWdodD0iMiIvPiYjeGE7ICAgICAgICA8cGF0aCBkPSJNMTgsMzVjMCwxLjEtMS4zLDItMywycy0zLTAuOS0zLTJIMTh6Ii8+JiN4YTsgICAgPC9nPiYjeGE7PC9zdmc+;" parent="1" vertex="1">
          <mxGeometry x="-234" y="592" width="48" height="48" as="geometry" />
        </mxCell>
        <mxCell id="A5XyS65-MMVEptwIIjuN-56" value="" style="endArrow=none;html=1;rounded=0;entryX=0.5;entryY=1;entryDx=0;entryDy=0;exitX=0.75;exitY=0;exitDx=0;exitDy=0;" parent="1" source="A5XyS65-MMVEptwIIjuN-45" edge="1" target="axStD_DV7LErkX4Y_dTy-32">
          <mxGeometry width="50" height="50" relative="1" as="geometry">
            <mxPoint x="92" y="543" as="sourcePoint" />
            <mxPoint x="-133.99999999999977" y="501" as="targetPoint" />
          </mxGeometry>
        </mxCell>
        <mxCell id="A5XyS65-MMVEptwIIjuN-57" value="" style="shape=image;verticalLabelPosition=bottom;verticalAlign=top;imageAspect=0;aspect=fixed;image=data:image/svg+xml,PHN2ZyB4bWxucz0iaHR0cDovL3d3dy53My5vcmcvMjAwMC9zdmciIHZlcnNpb249IjEiIHZpZXdCb3g9IjAgMCA0OCA0OCIgZW5hYmxlLWJhY2tncm91bmQ9Im5ldyAwIDAgNDggNDgiPiYjeGE7ICAgIDxwYXRoIGZpbGw9IiNGRjk4MDAiIGQ9Ik0yMiwzOGMtNC44LDAtNS03LTUtN3YtNmgxMHY2QzI3LDMxLDI2LjgsMzgsMjIsMzh6Ii8+JiN4YTsgICAgPGcgZmlsbD0iI0ZGQTcyNiI+JiN4YTsgICAgICAgIDxjaXJjbGUgY3g9IjMxIiBjeT0iMTkiIHI9IjIiLz4mI3hhOyAgICAgICAgPGNpcmNsZSBjeD0iMTMiIGN5PSIxOSIgcj0iMiIvPiYjeGE7ICAgIDwvZz4mI3hhOyAgICA8cGF0aCBmaWxsPSIjRkZCNzREIiBkPSJNMzEsMTNjMC03LjYtMTgtNS0xOCwwYzAsMS4xLDAsNS45LDAsN2MwLDUsNCw5LDksOXM5LTQsOS05QzMxLDE4LjksMzEsMTQuMSwzMSwxM3oiLz4mI3hhOyAgICA8cGF0aCBmaWxsPSIjNDI0MjQyIiBkPSJNMjIsNGMtNi4xLDAtMTAsNC45LTEwLDExYzAsMC44LDAsMi4zLDAsMi4zbDIsMS43di01bDEyLTRsNCw0djVsMi0xLjdjMCwwLDAtMS41LDAtMi4zYzAtNC0xLTgtNi05bC0xLTIgSDIyeiIvPiYjeGE7ICAgIDxnIGZpbGw9IiM3ODQ3MTkiPiYjeGE7ICAgICAgICA8Y2lyY2xlIGN4PSIyNiIgY3k9IjE5IiByPSIxIi8+JiN4YTsgICAgICAgIDxjaXJjbGUgY3g9IjE4IiBjeT0iMTkiIHI9IjEiLz4mI3hhOyAgICA8L2c+JiN4YTsgICAgPHBhdGggZmlsbD0iIzAwOTY4OCIgZD0iTTI3LDMxTDI3LDMxYzAsMC0xLjgsMi01LDJzLTUtMi01LTJTNiwzMyw2LDQ0aDMyQzM4LDMzLDI3LDMxLDI3LDMxeiIvPiYjeGE7ICAgIDxnIGZpbGw9IiNGRjk4MDAiPiYjeGE7ICAgICAgICA8cmVjdCB4PSIzNi4xIiB5PSI2LjEiIHRyYW5zZm9ybT0ibWF0cml4KC43MDcgLjcwNyAtLjcwNyAuNzA3IDE5Ljc4NyAtMjUuNzcpIiB3aWR0aD0iOS45IiBoZWlnaHQ9IjkuOSIvPiYjeGE7ICAgICAgICA8cmVjdCB4PSIzNiIgeT0iNiIgd2lkdGg9IjEwIiBoZWlnaHQ9IjEwIi8+JiN4YTsgICAgPC9nPiYjeGE7ICAgIDxjaXJjbGUgZmlsbD0iI0ZGRUIzQiIgY3g9IjQxIiBjeT0iMTEiIHI9IjMiLz4mI3hhOzwvc3ZnPg==;" parent="1" vertex="1">
          <mxGeometry x="-54" y="590" width="48" height="48" as="geometry" />
        </mxCell>
        <mxCell id="A5XyS65-MMVEptwIIjuN-58" value="" style="endArrow=none;html=1;rounded=0;entryX=0.5;entryY=1;entryDx=0;entryDy=0;exitX=0.5;exitY=0;exitDx=0;exitDy=0;" parent="1" source="A5XyS65-MMVEptwIIjuN-57" edge="1" target="axStD_DV7LErkX4Y_dTy-32">
          <mxGeometry width="50" height="50" relative="1" as="geometry">
            <mxPoint x="-72" y="563" as="sourcePoint" />
            <mxPoint x="-60" y="501" as="targetPoint" />
          </mxGeometry>
        </mxCell>
        <mxCell id="A5XyS65-MMVEptwIIjuN-59" value="" style="shape=image;verticalLabelPosition=bottom;verticalAlign=top;imageAspect=0;aspect=fixed;image=data:image/svg+xml,PHN2ZyB4bWxucz0iaHR0cDovL3d3dy53My5vcmcvMjAwMC9zdmciIHZlcnNpb249IjEiIHZpZXdCb3g9IjAgMCA0OCA0OCIgZW5hYmxlLWJhY2tncm91bmQ9Im5ldyAwIDAgNDggNDgiPiYjeGE7ICAgIDxwYXRoIGZpbGw9IiM1NDZFN0EiIGQ9Ik00NCwzMEg0VjExYzAtMi4yLDEuOC00LDQtNGgzMmMyLjIsMCw0LDEuOCw0LDRWMzB6Ii8+JiN4YTsgICAgPHBhdGggZmlsbD0iIzY0QjVGNiIgZD0iTTQwLDI3SDhjLTAuNiwwLTEtMC40LTEtMVYxMWMwLTAuNiwwLjQtMSwxLTFoMzJjMC42LDAsMSwwLjQsMSwxdjE1QzQxLDI2LjYsNDAuNiwyNyw0MCwyN3oiLz4mI3hhOyAgICA8cGF0aCBmaWxsPSIjNzg5MDlDIiBkPSJNNDAsNDFIOGMtMi4yLDAtNC0xLjgtNC00di03aDQwdjdDNDQsMzkuMiw0Mi4yLDQxLDQwLDQxeiIvPiYjeGE7ICAgIDxnIGZpbGw9IiMzNzQ3NEYiPiYjeGE7ICAgICAgICA8cmVjdCB4PSIyNyIgeT0iMzQiIHdpZHRoPSIxMiIgaGVpZ2h0PSIyIi8+JiN4YTsgICAgICAgIDxyZWN0IHg9IjkiIHk9IjM0IiB3aWR0aD0iMTIiIGhlaWdodD0iMiIvPiYjeGE7ICAgICAgICA8cGF0aCBkPSJNMTgsMzVjMCwxLjEtMS4zLDItMywycy0zLTAuOS0zLTJIMTh6Ii8+JiN4YTsgICAgPC9nPiYjeGE7PC9zdmc+;" parent="1" vertex="1">
          <mxGeometry x="148" y="580" width="48" height="48" as="geometry" />
        </mxCell>
        <mxCell id="A5XyS65-MMVEptwIIjuN-60" value="" style="endArrow=none;html=1;rounded=0;entryX=0.5;entryY=1;entryDx=0;entryDy=0;exitX=0.75;exitY=0;exitDx=0;exitDy=0;" parent="1" source="A5XyS65-MMVEptwIIjuN-59" edge="1" target="axStD_DV7LErkX4Y_dTy-31">
          <mxGeometry width="50" height="50" relative="1" as="geometry">
            <mxPoint x="396" y="542" as="sourcePoint" />
            <mxPoint x="238" y="500" as="targetPoint" />
          </mxGeometry>
        </mxCell>
        <mxCell id="A5XyS65-MMVEptwIIjuN-61" value="" style="shape=image;verticalLabelPosition=bottom;verticalAlign=top;imageAspect=0;aspect=fixed;image=data:image/svg+xml,PHN2ZyB4bWxucz0iaHR0cDovL3d3dy53My5vcmcvMjAwMC9zdmciIHZlcnNpb249IjEiIHZpZXdCb3g9IjAgMCA0OCA0OCIgZW5hYmxlLWJhY2tncm91bmQ9Im5ldyAwIDAgNDggNDgiPiYjeGE7ICAgIDxwYXRoIGZpbGw9IiNGRjk4MDAiIGQ9Ik0yMiwzOGMtNC44LDAtNS03LTUtN3YtNmgxMHY2QzI3LDMxLDI2LjgsMzgsMjIsMzh6Ii8+JiN4YTsgICAgPGcgZmlsbD0iI0ZGQTcyNiI+JiN4YTsgICAgICAgIDxjaXJjbGUgY3g9IjMxIiBjeT0iMTkiIHI9IjIiLz4mI3hhOyAgICAgICAgPGNpcmNsZSBjeD0iMTMiIGN5PSIxOSIgcj0iMiIvPiYjeGE7ICAgIDwvZz4mI3hhOyAgICA8cGF0aCBmaWxsPSIjRkZCNzREIiBkPSJNMzEsMTNjMC03LjYtMTgtNS0xOCwwYzAsMS4xLDAsNS45LDAsN2MwLDUsNCw5LDksOXM5LTQsOS05QzMxLDE4LjksMzEsMTQuMSwzMSwxM3oiLz4mI3hhOyAgICA8cGF0aCBmaWxsPSIjNDI0MjQyIiBkPSJNMjIsNGMtNi4xLDAtMTAsNC45LTEwLDExYzAsMC44LDAsMi4zLDAsMi4zbDIsMS43di01bDEyLTRsNCw0djVsMi0xLjdjMCwwLDAtMS41LDAtMi4zYzAtNC0xLTgtNi05bC0xLTIgSDIyeiIvPiYjeGE7ICAgIDxnIGZpbGw9IiM3ODQ3MTkiPiYjeGE7ICAgICAgICA8Y2lyY2xlIGN4PSIyNiIgY3k9IjE5IiByPSIxIi8+JiN4YTsgICAgICAgIDxjaXJjbGUgY3g9IjE4IiBjeT0iMTkiIHI9IjEiLz4mI3hhOyAgICA8L2c+JiN4YTsgICAgPHBhdGggZmlsbD0iIzAwOTY4OCIgZD0iTTI3LDMxTDI3LDMxYzAsMC0xLjgsMi01LDJzLTUtMi01LTJTNiwzMyw2LDQ0aDMyQzM4LDMzLDI3LDMxLDI3LDMxeiIvPiYjeGE7ICAgIDxnIGZpbGw9IiNGRjk4MDAiPiYjeGE7ICAgICAgICA8cmVjdCB4PSIzNi4xIiB5PSI2LjEiIHRyYW5zZm9ybT0ibWF0cml4KC43MDcgLjcwNyAtLjcwNyAuNzA3IDE5Ljc4NyAtMjUuNzcpIiB3aWR0aD0iOS45IiBoZWlnaHQ9IjkuOSIvPiYjeGE7ICAgICAgICA8cmVjdCB4PSIzNiIgeT0iNiIgd2lkdGg9IjEwIiBoZWlnaHQ9IjEwIi8+JiN4YTsgICAgPC9nPiYjeGE7ICAgIDxjaXJjbGUgZmlsbD0iI0ZGRUIzQiIgY3g9IjQxIiBjeT0iMTEiIHI9IjMiLz4mI3hhOzwvc3ZnPg==;" parent="1" vertex="1">
          <mxGeometry x="264" y="587" width="48" height="48" as="geometry" />
        </mxCell>
        <mxCell id="A5XyS65-MMVEptwIIjuN-62" value="" style="endArrow=none;html=1;rounded=0;entryX=0.5;entryY=1;entryDx=0;entryDy=0;exitX=0.5;exitY=0;exitDx=0;exitDy=0;" parent="1" source="A5XyS65-MMVEptwIIjuN-61" edge="1" target="axStD_DV7LErkX4Y_dTy-31">
          <mxGeometry width="50" height="50" relative="1" as="geometry">
            <mxPoint x="182" y="562" as="sourcePoint" />
            <mxPoint x="246.00000000000023" y="500" as="targetPoint" />
          </mxGeometry>
        </mxCell>
        <mxCell id="A5XyS65-MMVEptwIIjuN-63" value="" style="shape=image;verticalLabelPosition=bottom;verticalAlign=top;imageAspect=0;aspect=fixed;image=data:image/svg+xml,PHN2ZyB4bWxucz0iaHR0cDovL3d3dy53My5vcmcvMjAwMC9zdmciIHZlcnNpb249IjEiIHZpZXdCb3g9IjAgMCA0OCA0OCIgZW5hYmxlLWJhY2tncm91bmQ9Im5ldyAwIDAgNDggNDgiPiYjeGE7ICAgIDxwYXRoIGZpbGw9IiM1NDZFN0EiIGQ9Ik00NCwzMEg0VjExYzAtMi4yLDEuOC00LDQtNGgzMmMyLjIsMCw0LDEuOCw0LDRWMzB6Ii8+JiN4YTsgICAgPHBhdGggZmlsbD0iIzY0QjVGNiIgZD0iTTQwLDI3SDhjLTAuNiwwLTEtMC40LTEtMVYxMWMwLTAuNiwwLjQtMSwxLTFoMzJjMC42LDAsMSwwLjQsMSwxdjE1QzQxLDI2LjYsNDAuNiwyNyw0MCwyN3oiLz4mI3hhOyAgICA8cGF0aCBmaWxsPSIjNzg5MDlDIiBkPSJNNDAsNDFIOGMtMi4yLDAtNC0xLjgtNC00di03aDQwdjdDNDQsMzkuMiw0Mi4yLDQxLDQwLDQxeiIvPiYjeGE7ICAgIDxnIGZpbGw9IiMzNzQ3NEYiPiYjeGE7ICAgICAgICA8cmVjdCB4PSIyNyIgeT0iMzQiIHdpZHRoPSIxMiIgaGVpZ2h0PSIyIi8+JiN4YTsgICAgICAgIDxyZWN0IHg9IjkiIHk9IjM0IiB3aWR0aD0iMTIiIGhlaWdodD0iMiIvPiYjeGE7ICAgICAgICA8cGF0aCBkPSJNMTgsMzVjMCwxLjEtMS4zLDItMywycy0zLTAuOS0zLTJIMTh6Ii8+JiN4YTsgICAgPC9nPiYjeGE7PC9zdmc+;" parent="1" vertex="1">
          <mxGeometry x="386" y="588" width="48" height="48" as="geometry" />
        </mxCell>
        <mxCell id="A5XyS65-MMVEptwIIjuN-64" value="" style="endArrow=none;html=1;rounded=0;entryX=0.5;entryY=1;entryDx=0;entryDy=0;exitX=0.75;exitY=0;exitDx=0;exitDy=0;" parent="1" source="A5XyS65-MMVEptwIIjuN-63" edge="1" target="axStD_DV7LErkX4Y_dTy-30">
          <mxGeometry width="50" height="50" relative="1" as="geometry">
            <mxPoint x="705" y="541" as="sourcePoint" />
            <mxPoint x="528.0000000000002" y="499" as="targetPoint" />
          </mxGeometry>
        </mxCell>
        <mxCell id="A5XyS65-MMVEptwIIjuN-65" value="" style="shape=image;verticalLabelPosition=bottom;verticalAlign=top;imageAspect=0;aspect=fixed;image=data:image/svg+xml,PHN2ZyB4bWxucz0iaHR0cDovL3d3dy53My5vcmcvMjAwMC9zdmciIHZlcnNpb249IjEiIHZpZXdCb3g9IjAgMCA0OCA0OCIgZW5hYmxlLWJhY2tncm91bmQ9Im5ldyAwIDAgNDggNDgiPiYjeGE7ICAgIDxwYXRoIGZpbGw9IiNGRjk4MDAiIGQ9Ik0yMiwzOGMtNC44LDAtNS03LTUtN3YtNmgxMHY2QzI3LDMxLDI2LjgsMzgsMjIsMzh6Ii8+JiN4YTsgICAgPGcgZmlsbD0iI0ZGQTcyNiI+JiN4YTsgICAgICAgIDxjaXJjbGUgY3g9IjMxIiBjeT0iMTkiIHI9IjIiLz4mI3hhOyAgICAgICAgPGNpcmNsZSBjeD0iMTMiIGN5PSIxOSIgcj0iMiIvPiYjeGE7ICAgIDwvZz4mI3hhOyAgICA8cGF0aCBmaWxsPSIjRkZCNzREIiBkPSJNMzEsMTNjMC03LjYtMTgtNS0xOCwwYzAsMS4xLDAsNS45LDAsN2MwLDUsNCw5LDksOXM5LTQsOS05QzMxLDE4LjksMzEsMTQuMSwzMSwxM3oiLz4mI3hhOyAgICA8cGF0aCBmaWxsPSIjNDI0MjQyIiBkPSJNMjIsNGMtNi4xLDAtMTAsNC45LTEwLDExYzAsMC44LDAsMi4zLDAsMi4zbDIsMS43di01bDEyLTRsNCw0djVsMi0xLjdjMCwwLDAtMS41LDAtMi4zYzAtNC0xLTgtNi05bC0xLTIgSDIyeiIvPiYjeGE7ICAgIDxnIGZpbGw9IiM3ODQ3MTkiPiYjeGE7ICAgICAgICA8Y2lyY2xlIGN4PSIyNiIgY3k9IjE5IiByPSIxIi8+JiN4YTsgICAgICAgIDxjaXJjbGUgY3g9IjE4IiBjeT0iMTkiIHI9IjEiLz4mI3hhOyAgICA8L2c+JiN4YTsgICAgPHBhdGggZmlsbD0iIzAwOTY4OCIgZD0iTTI3LDMxTDI3LDMxYzAsMC0xLjgsMi01LDJzLTUtMi01LTJTNiwzMyw2LDQ0aDMyQzM4LDMzLDI3LDMxLDI3LDMxeiIvPiYjeGE7ICAgIDxnIGZpbGw9IiNGRjk4MDAiPiYjeGE7ICAgICAgICA8cmVjdCB4PSIzNi4xIiB5PSI2LjEiIHRyYW5zZm9ybT0ibWF0cml4KC43MDcgLjcwNyAtLjcwNyAuNzA3IDE5Ljc4NyAtMjUuNzcpIiB3aWR0aD0iOS45IiBoZWlnaHQ9IjkuOSIvPiYjeGE7ICAgICAgICA8cmVjdCB4PSIzNiIgeT0iNiIgd2lkdGg9IjEwIiBoZWlnaHQ9IjEwIi8+JiN4YTsgICAgPC9nPiYjeGE7ICAgIDxjaXJjbGUgZmlsbD0iI0ZGRUIzQiIgY3g9IjQxIiBjeT0iMTEiIHI9IjMiLz4mI3hhOzwvc3ZnPg==;" parent="1" vertex="1">
          <mxGeometry x="543" y="583" width="48" height="48" as="geometry" />
        </mxCell>
        <mxCell id="A5XyS65-MMVEptwIIjuN-66" value="" style="endArrow=none;html=1;rounded=0;entryX=0.5;entryY=1;entryDx=0;entryDy=0;exitX=0.479;exitY=0;exitDx=0;exitDy=0;exitPerimeter=0;" parent="1" source="A5XyS65-MMVEptwIIjuN-65" edge="1" target="axStD_DV7LErkX4Y_dTy-30">
          <mxGeometry width="50" height="50" relative="1" as="geometry">
            <mxPoint x="491" y="561" as="sourcePoint" />
            <mxPoint x="555" y="499" as="targetPoint" />
          </mxGeometry>
        </mxCell>
        <mxCell id="A5XyS65-MMVEptwIIjuN-67" style="edgeStyle=orthogonalEdgeStyle;rounded=0;orthogonalLoop=1;jettySize=auto;html=1;exitX=0.5;exitY=1;exitDx=0;exitDy=0;" parent="1" source="A5XyS65-MMVEptwIIjuN-41" target="A5XyS65-MMVEptwIIjuN-41" edge="1">
          <mxGeometry relative="1" as="geometry" />
        </mxCell>
        <mxCell id="A5XyS65-MMVEptwIIjuN-68" value="" style="shape=image;verticalLabelPosition=bottom;verticalAlign=top;imageAspect=0;aspect=fixed;image=data:image/svg+xml,PHN2ZyB4bWxucz0iaHR0cDovL3d3dy53My5vcmcvMjAwMC9zdmciIHZlcnNpb249IjEiIHZpZXdCb3g9IjAgMCA0OCA0OCIgZW5hYmxlLWJhY2tncm91bmQ9Im5ldyAwIDAgNDggNDgiPiYjeGE7ICAgIDxwYXRoIGZpbGw9IiM1NDZFN0EiIGQ9Ik00NCwzMEg0VjExYzAtMi4yLDEuOC00LDQtNGgzMmMyLjIsMCw0LDEuOCw0LDRWMzB6Ii8+JiN4YTsgICAgPHBhdGggZmlsbD0iIzY0QjVGNiIgZD0iTTQwLDI3SDhjLTAuNiwwLTEtMC40LTEtMVYxMWMwLTAuNiwwLjQtMSwxLTFoMzJjMC42LDAsMSwwLjQsMSwxdjE1QzQxLDI2LjYsNDAuNiwyNyw0MCwyN3oiLz4mI3hhOyAgICA8cGF0aCBmaWxsPSIjNzg5MDlDIiBkPSJNNDAsNDFIOGMtMi4yLDAtNC0xLjgtNC00di03aDQwdjdDNDQsMzkuMiw0Mi4yLDQxLDQwLDQxeiIvPiYjeGE7ICAgIDxnIGZpbGw9IiMzNzQ3NEYiPiYjeGE7ICAgICAgICA8cmVjdCB4PSIyNyIgeT0iMzQiIHdpZHRoPSIxMiIgaGVpZ2h0PSIyIi8+JiN4YTsgICAgICAgIDxyZWN0IHg9IjkiIHk9IjM0IiB3aWR0aD0iMTIiIGhlaWdodD0iMiIvPiYjeGE7ICAgICAgICA8cGF0aCBkPSJNMTgsMzVjMCwxLjEtMS4zLDItMywycy0zLTAuOS0zLTJIMTh6Ii8+JiN4YTsgICAgPC9nPiYjeGE7PC9zdmc+;" parent="1" vertex="1">
          <mxGeometry x="634" y="580" width="48" height="48" as="geometry" />
        </mxCell>
        <mxCell id="A5XyS65-MMVEptwIIjuN-69" value="" style="endArrow=none;html=1;rounded=0;entryX=0.5;entryY=1;entryDx=0;entryDy=0;exitX=0.75;exitY=0;exitDx=0;exitDy=0;" parent="1" source="A5XyS65-MMVEptwIIjuN-68" edge="1" target="axStD_DV7LErkX4Y_dTy-34">
          <mxGeometry width="50" height="50" relative="1" as="geometry">
            <mxPoint x="829.5" y="541" as="sourcePoint" />
            <mxPoint x="652.5" y="499" as="targetPoint" />
          </mxGeometry>
        </mxCell>
        <mxCell id="A5XyS65-MMVEptwIIjuN-70" value="" style="shape=image;verticalLabelPosition=bottom;verticalAlign=top;imageAspect=0;aspect=fixed;image=data:image/svg+xml,PHN2ZyB4bWxucz0iaHR0cDovL3d3dy53My5vcmcvMjAwMC9zdmciIHZlcnNpb249IjEiIHZpZXdCb3g9IjAgMCA0OCA0OCIgZW5hYmxlLWJhY2tncm91bmQ9Im5ldyAwIDAgNDggNDgiPiYjeGE7ICAgIDxwYXRoIGZpbGw9IiNGRjk4MDAiIGQ9Ik0yMiwzOGMtNC44LDAtNS03LTUtN3YtNmgxMHY2QzI3LDMxLDI2LjgsMzgsMjIsMzh6Ii8+JiN4YTsgICAgPGcgZmlsbD0iI0ZGQTcyNiI+JiN4YTsgICAgICAgIDxjaXJjbGUgY3g9IjMxIiBjeT0iMTkiIHI9IjIiLz4mI3hhOyAgICAgICAgPGNpcmNsZSBjeD0iMTMiIGN5PSIxOSIgcj0iMiIvPiYjeGE7ICAgIDwvZz4mI3hhOyAgICA8cGF0aCBmaWxsPSIjRkZCNzREIiBkPSJNMzEsMTNjMC03LjYtMTgtNS0xOCwwYzAsMS4xLDAsNS45LDAsN2MwLDUsNCw5LDksOXM5LTQsOS05QzMxLDE4LjksMzEsMTQuMSwzMSwxM3oiLz4mI3hhOyAgICA8cGF0aCBmaWxsPSIjNDI0MjQyIiBkPSJNMjIsNGMtNi4xLDAtMTAsNC45LTEwLDExYzAsMC44LDAsMi4zLDAsMi4zbDIsMS43di01bDEyLTRsNCw0djVsMi0xLjdjMCwwLDAtMS41LDAtMi4zYzAtNC0xLTgtNi05bC0xLTIgSDIyeiIvPiYjeGE7ICAgIDxnIGZpbGw9IiM3ODQ3MTkiPiYjeGE7ICAgICAgICA8Y2lyY2xlIGN4PSIyNiIgY3k9IjE5IiByPSIxIi8+JiN4YTsgICAgICAgIDxjaXJjbGUgY3g9IjE4IiBjeT0iMTkiIHI9IjEiLz4mI3hhOyAgICA8L2c+JiN4YTsgICAgPHBhdGggZmlsbD0iIzAwOTY4OCIgZD0iTTI3LDMxTDI3LDMxYzAsMC0xLjgsMi01LDJzLTUtMi01LTJTNiwzMyw2LDQ0aDMyQzM4LDMzLDI3LDMxLDI3LDMxeiIvPiYjeGE7ICAgIDxnIGZpbGw9IiNGRjk4MDAiPiYjeGE7ICAgICAgICA8cmVjdCB4PSIzNi4xIiB5PSI2LjEiIHRyYW5zZm9ybT0ibWF0cml4KC43MDcgLjcwNyAtLjcwNyAuNzA3IDE5Ljc4NyAtMjUuNzcpIiB3aWR0aD0iOS45IiBoZWlnaHQ9IjkuOSIvPiYjeGE7ICAgICAgICA8cmVjdCB4PSIzNiIgeT0iNiIgd2lkdGg9IjEwIiBoZWlnaHQ9IjEwIi8+JiN4YTsgICAgPC9nPiYjeGE7ICAgIDxjaXJjbGUgZmlsbD0iI0ZGRUIzQiIgY3g9IjQxIiBjeT0iMTEiIHI9IjMiLz4mI3hhOzwvc3ZnPg==;" parent="1" vertex="1">
          <mxGeometry x="780" y="578" width="48" height="48" as="geometry" />
        </mxCell>
        <mxCell id="A5XyS65-MMVEptwIIjuN-71" value="" style="endArrow=none;html=1;rounded=0;entryX=0.5;entryY=1;entryDx=0;entryDy=0;exitX=0.5;exitY=0;exitDx=0;exitDy=0;" parent="1" source="A5XyS65-MMVEptwIIjuN-70" edge="1" target="axStD_DV7LErkX4Y_dTy-34">
          <mxGeometry width="50" height="50" relative="1" as="geometry">
            <mxPoint x="615.5" y="561" as="sourcePoint" />
            <mxPoint x="679.5" y="499" as="targetPoint" />
          </mxGeometry>
        </mxCell>
        <mxCell id="A5XyS65-MMVEptwIIjuN-72" value="" style="shape=image;verticalLabelPosition=bottom;verticalAlign=top;imageAspect=0;aspect=fixed;image=data:image/svg+xml,PHN2ZyB4bWxucz0iaHR0cDovL3d3dy53My5vcmcvMjAwMC9zdmciIHZlcnNpb249IjEiIHZpZXdCb3g9IjAgMCA0OCA0OCIgZW5hYmxlLWJhY2tncm91bmQ9Im5ldyAwIDAgNDggNDgiPiYjeGE7ICAgIDxwYXRoIGZpbGw9IiM1NDZFN0EiIGQ9Ik00NCwzMEg0VjExYzAtMi4yLDEuOC00LDQtNGgzMmMyLjIsMCw0LDEuOCw0LDRWMzB6Ii8+JiN4YTsgICAgPHBhdGggZmlsbD0iIzY0QjVGNiIgZD0iTTQwLDI3SDhjLTAuNiwwLTEtMC40LTEtMVYxMWMwLTAuNiwwLjQtMSwxLTFoMzJjMC42LDAsMSwwLjQsMSwxdjE1QzQxLDI2LjYsNDAuNiwyNyw0MCwyN3oiLz4mI3hhOyAgICA8cGF0aCBmaWxsPSIjNzg5MDlDIiBkPSJNNDAsNDFIOGMtMi4yLDAtNC0xLjgtNC00di03aDQwdjdDNDQsMzkuMiw0Mi4yLDQxLDQwLDQxeiIvPiYjeGE7ICAgIDxnIGZpbGw9IiMzNzQ3NEYiPiYjeGE7ICAgICAgICA8cmVjdCB4PSIyNyIgeT0iMzQiIHdpZHRoPSIxMiIgaGVpZ2h0PSIyIi8+JiN4YTsgICAgICAgIDxyZWN0IHg9IjkiIHk9IjM0IiB3aWR0aD0iMTIiIGhlaWdodD0iMiIvPiYjeGE7ICAgICAgICA8cGF0aCBkPSJNMTgsMzVjMCwxLjEtMS4zLDItMywycy0zLTAuOS0zLTJIMTh6Ii8+JiN4YTsgICAgPC9nPiYjeGE7PC9zdmc+;" parent="1" vertex="1">
          <mxGeometry x="896" y="580" width="48" height="48" as="geometry" />
        </mxCell>
        <mxCell id="A5XyS65-MMVEptwIIjuN-73" value="" style="endArrow=none;html=1;rounded=0;exitX=0.75;exitY=0;exitDx=0;exitDy=0;entryX=0.5;entryY=1;entryDx=0;entryDy=0;" parent="1" source="A5XyS65-MMVEptwIIjuN-72" edge="1" target="axStD_DV7LErkX4Y_dTy-35">
          <mxGeometry width="50" height="50" relative="1" as="geometry">
            <mxPoint x="1237.33" y="533" as="sourcePoint" />
            <mxPoint x="1051" y="490" as="targetPoint" />
          </mxGeometry>
        </mxCell>
        <mxCell id="A5XyS65-MMVEptwIIjuN-74" value="" style="shape=image;verticalLabelPosition=bottom;verticalAlign=top;imageAspect=0;aspect=fixed;image=data:image/svg+xml,PHN2ZyB4bWxucz0iaHR0cDovL3d3dy53My5vcmcvMjAwMC9zdmciIHZlcnNpb249IjEiIHZpZXdCb3g9IjAgMCA0OCA0OCIgZW5hYmxlLWJhY2tncm91bmQ9Im5ldyAwIDAgNDggNDgiPiYjeGE7ICAgIDxwYXRoIGZpbGw9IiNGRjk4MDAiIGQ9Ik0yMiwzOGMtNC44LDAtNS03LTUtN3YtNmgxMHY2QzI3LDMxLDI2LjgsMzgsMjIsMzh6Ii8+JiN4YTsgICAgPGcgZmlsbD0iI0ZGQTcyNiI+JiN4YTsgICAgICAgIDxjaXJjbGUgY3g9IjMxIiBjeT0iMTkiIHI9IjIiLz4mI3hhOyAgICAgICAgPGNpcmNsZSBjeD0iMTMiIGN5PSIxOSIgcj0iMiIvPiYjeGE7ICAgIDwvZz4mI3hhOyAgICA8cGF0aCBmaWxsPSIjRkZCNzREIiBkPSJNMzEsMTNjMC03LjYtMTgtNS0xOCwwYzAsMS4xLDAsNS45LDAsN2MwLDUsNCw5LDksOXM5LTQsOS05QzMxLDE4LjksMzEsMTQuMSwzMSwxM3oiLz4mI3hhOyAgICA8cGF0aCBmaWxsPSIjNDI0MjQyIiBkPSJNMjIsNGMtNi4xLDAtMTAsNC45LTEwLDExYzAsMC44LDAsMi4zLDAsMi4zbDIsMS43di01bDEyLTRsNCw0djVsMi0xLjdjMCwwLDAtMS41LDAtMi4zYzAtNC0xLTgtNi05bC0xLTIgSDIyeiIvPiYjeGE7ICAgIDxnIGZpbGw9IiM3ODQ3MTkiPiYjeGE7ICAgICAgICA8Y2lyY2xlIGN4PSIyNiIgY3k9IjE5IiByPSIxIi8+JiN4YTsgICAgICAgIDxjaXJjbGUgY3g9IjE4IiBjeT0iMTkiIHI9IjEiLz4mI3hhOyAgICA8L2c+JiN4YTsgICAgPHBhdGggZmlsbD0iIzAwOTY4OCIgZD0iTTI3LDMxTDI3LDMxYzAsMC0xLjgsMi01LDJzLTUtMi01LTJTNiwzMyw2LDQ0aDMyQzM4LDMzLDI3LDMxLDI3LDMxeiIvPiYjeGE7ICAgIDxnIGZpbGw9IiNGRjk4MDAiPiYjeGE7ICAgICAgICA8cmVjdCB4PSIzNi4xIiB5PSI2LjEiIHRyYW5zZm9ybT0ibWF0cml4KC43MDcgLjcwNyAtLjcwNyAuNzA3IDE5Ljc4NyAtMjUuNzcpIiB3aWR0aD0iOS45IiBoZWlnaHQ9IjkuOSIvPiYjeGE7ICAgICAgICA8cmVjdCB4PSIzNiIgeT0iNiIgd2lkdGg9IjEwIiBoZWlnaHQ9IjEwIi8+JiN4YTsgICAgPC9nPiYjeGE7ICAgIDxjaXJjbGUgZmlsbD0iI0ZGRUIzQiIgY3g9IjQxIiBjeT0iMTEiIHI9IjMiLz4mI3hhOzwvc3ZnPg==;" parent="1" vertex="1">
          <mxGeometry x="1081.33" y="586" width="48" height="48" as="geometry" />
        </mxCell>
        <mxCell id="A5XyS65-MMVEptwIIjuN-75" value="" style="endArrow=none;html=1;rounded=0;exitX=0.479;exitY=0;exitDx=0;exitDy=0;exitPerimeter=0;entryX=0.5;entryY=1;entryDx=0;entryDy=0;" parent="1" source="A5XyS65-MMVEptwIIjuN-74" edge="1" target="axStD_DV7LErkX4Y_dTy-35">
          <mxGeometry width="50" height="50" relative="1" as="geometry">
            <mxPoint x="1023.33" y="553" as="sourcePoint" />
            <mxPoint x="1087.33" y="491" as="targetPoint" />
          </mxGeometry>
        </mxCell>
        <mxCell id="A5XyS65-MMVEptwIIjuN-76" value="" style="shape=image;verticalLabelPosition=bottom;verticalAlign=top;imageAspect=0;aspect=fixed;image=data:image/svg+xml,PHN2ZyB4bWxucz0iaHR0cDovL3d3dy53My5vcmcvMjAwMC9zdmciIHZlcnNpb249IjEiIHZpZXdCb3g9IjAgMCA0OCA0OCIgZW5hYmxlLWJhY2tncm91bmQ9Im5ldyAwIDAgNDggNDgiPiYjeGE7ICAgIDxwYXRoIGZpbGw9IiM1NDZFN0EiIGQ9Ik00NCwzMEg0VjExYzAtMi4yLDEuOC00LDQtNGgzMmMyLjIsMCw0LDEuOCw0LDRWMzB6Ii8+JiN4YTsgICAgPHBhdGggZmlsbD0iIzY0QjVGNiIgZD0iTTQwLDI3SDhjLTAuNiwwLTEtMC40LTEtMVYxMWMwLTAuNiwwLjQtMSwxLTFoMzJjMC42LDAsMSwwLjQsMSwxdjE1QzQxLDI2LjYsNDAuNiwyNyw0MCwyN3oiLz4mI3hhOyAgICA8cGF0aCBmaWxsPSIjNzg5MDlDIiBkPSJNNDAsNDFIOGMtMi4yLDAtNC0xLjgtNC00di03aDQwdjdDNDQsMzkuMiw0Mi4yLDQxLDQwLDQxeiIvPiYjeGE7ICAgIDxnIGZpbGw9IiMzNzQ3NEYiPiYjeGE7ICAgICAgICA8cmVjdCB4PSIyNyIgeT0iMzQiIHdpZHRoPSIxMiIgaGVpZ2h0PSIyIi8+JiN4YTsgICAgICAgIDxyZWN0IHg9IjkiIHk9IjM0IiB3aWR0aD0iMTIiIGhlaWdodD0iMiIvPiYjeGE7ICAgICAgICA8cGF0aCBkPSJNMTgsMzVjMCwxLjEtMS4zLDItMywycy0zLTAuOS0zLTJIMTh6Ii8+JiN4YTsgICAgPC9nPiYjeGE7PC9zdmc+;" parent="1" vertex="1">
          <mxGeometry x="1184" y="578" width="48" height="48" as="geometry" />
        </mxCell>
        <mxCell id="A5XyS65-MMVEptwIIjuN-77" value="" style="endArrow=none;html=1;rounded=0;entryX=0.5;entryY=1;entryDx=0;entryDy=0;exitX=0.75;exitY=0;exitDx=0;exitDy=0;" parent="1" source="A5XyS65-MMVEptwIIjuN-76" edge="1" target="axStD_DV7LErkX4Y_dTy-36">
          <mxGeometry width="50" height="50" relative="1" as="geometry">
            <mxPoint x="1359.33" y="533" as="sourcePoint" />
            <mxPoint x="1182.33" y="491" as="targetPoint" />
          </mxGeometry>
        </mxCell>
        <mxCell id="A5XyS65-MMVEptwIIjuN-78" value="" style="shape=image;verticalLabelPosition=bottom;verticalAlign=top;imageAspect=0;aspect=fixed;image=data:image/svg+xml,PHN2ZyB4bWxucz0iaHR0cDovL3d3dy53My5vcmcvMjAwMC9zdmciIHZlcnNpb249IjEiIHZpZXdCb3g9IjAgMCA0OCA0OCIgZW5hYmxlLWJhY2tncm91bmQ9Im5ldyAwIDAgNDggNDgiPiYjeGE7ICAgIDxwYXRoIGZpbGw9IiNGRjk4MDAiIGQ9Ik0yMiwzOGMtNC44LDAtNS03LTUtN3YtNmgxMHY2QzI3LDMxLDI2LjgsMzgsMjIsMzh6Ii8+JiN4YTsgICAgPGcgZmlsbD0iI0ZGQTcyNiI+JiN4YTsgICAgICAgIDxjaXJjbGUgY3g9IjMxIiBjeT0iMTkiIHI9IjIiLz4mI3hhOyAgICAgICAgPGNpcmNsZSBjeD0iMTMiIGN5PSIxOSIgcj0iMiIvPiYjeGE7ICAgIDwvZz4mI3hhOyAgICA8cGF0aCBmaWxsPSIjRkZCNzREIiBkPSJNMzEsMTNjMC03LjYtMTgtNS0xOCwwYzAsMS4xLDAsNS45LDAsN2MwLDUsNCw5LDksOXM5LTQsOS05QzMxLDE4LjksMzEsMTQuMSwzMSwxM3oiLz4mI3hhOyAgICA8cGF0aCBmaWxsPSIjNDI0MjQyIiBkPSJNMjIsNGMtNi4xLDAtMTAsNC45LTEwLDExYzAsMC44LDAsMi4zLDAsMi4zbDIsMS43di01bDEyLTRsNCw0djVsMi0xLjdjMCwwLDAtMS41LDAtMi4zYzAtNC0xLTgtNi05bC0xLTIgSDIyeiIvPiYjeGE7ICAgIDxnIGZpbGw9IiM3ODQ3MTkiPiYjeGE7ICAgICAgICA8Y2lyY2xlIGN4PSIyNiIgY3k9IjE5IiByPSIxIi8+JiN4YTsgICAgICAgIDxjaXJjbGUgY3g9IjE4IiBjeT0iMTkiIHI9IjEiLz4mI3hhOyAgICA8L2c+JiN4YTsgICAgPHBhdGggZmlsbD0iIzAwOTY4OCIgZD0iTTI3LDMxTDI3LDMxYzAsMC0xLjgsMi01LDJzLTUtMi01LTJTNiwzMyw2LDQ0aDMyQzM4LDMzLDI3LDMxLDI3LDMxeiIvPiYjeGE7ICAgIDxnIGZpbGw9IiNGRjk4MDAiPiYjeGE7ICAgICAgICA8cmVjdCB4PSIzNi4xIiB5PSI2LjEiIHRyYW5zZm9ybT0ibWF0cml4KC43MDcgLjcwNyAtLjcwNyAuNzA3IDE5Ljc4NyAtMjUuNzcpIiB3aWR0aD0iOS45IiBoZWlnaHQ9IjkuOSIvPiYjeGE7ICAgICAgICA8cmVjdCB4PSIzNiIgeT0iNiIgd2lkdGg9IjEwIiBoZWlnaHQ9IjEwIi8+JiN4YTsgICAgPC9nPiYjeGE7ICAgIDxjaXJjbGUgZmlsbD0iI0ZGRUIzQiIgY3g9IjQxIiBjeT0iMTEiIHI9IjMiLz4mI3hhOzwvc3ZnPg==;" parent="1" vertex="1">
          <mxGeometry x="1306" y="581" width="48" height="48" as="geometry" />
        </mxCell>
        <mxCell id="A5XyS65-MMVEptwIIjuN-79" value="" style="endArrow=none;html=1;rounded=0;entryX=0.5;entryY=0;entryDx=0;entryDy=0;exitX=0.5;exitY=1;exitDx=0;exitDy=0;" parent="1" source="axStD_DV7LErkX4Y_dTy-36" edge="1" target="A5XyS65-MMVEptwIIjuN-78">
          <mxGeometry width="50" height="50" relative="1" as="geometry">
            <mxPoint x="1273.3219999999997" y="454" as="sourcePoint" />
            <mxPoint x="1262.33" y="392" as="targetPoint" />
          </mxGeometry>
        </mxCell>
        <mxCell id="A5XyS65-MMVEptwIIjuN-80" value="" style="shape=image;verticalLabelPosition=bottom;verticalAlign=top;imageAspect=0;aspect=fixed;image=data:image/svg+xml,PHN2ZyB4bWxucz0iaHR0cDovL3d3dy53My5vcmcvMjAwMC9zdmciIHZlcnNpb249IjEiIHZpZXdCb3g9IjAgMCA0OCA0OCIgZW5hYmxlLWJhY2tncm91bmQ9Im5ldyAwIDAgNDggNDgiPiYjeGE7ICAgIDxwYXRoIGZpbGw9IiM1NDZFN0EiIGQ9Ik00NCwzMEg0VjExYzAtMi4yLDEuOC00LDQtNGgzMmMyLjIsMCw0LDEuOCw0LDRWMzB6Ii8+JiN4YTsgICAgPHBhdGggZmlsbD0iIzY0QjVGNiIgZD0iTTQwLDI3SDhjLTAuNiwwLTEtMC40LTEtMVYxMWMwLTAuNiwwLjQtMSwxLTFoMzJjMC42LDAsMSwwLjQsMSwxdjE1QzQxLDI2LjYsNDAuNiwyNyw0MCwyN3oiLz4mI3hhOyAgICA8cGF0aCBmaWxsPSIjNzg5MDlDIiBkPSJNNDAsNDFIOGMtMi4yLDAtNC0xLjgtNC00di03aDQwdjdDNDQsMzkuMiw0Mi4yLDQxLDQwLDQxeiIvPiYjeGE7ICAgIDxnIGZpbGw9IiMzNzQ3NEYiPiYjeGE7ICAgICAgICA8cmVjdCB4PSIyNyIgeT0iMzQiIHdpZHRoPSIxMiIgaGVpZ2h0PSIyIi8+JiN4YTsgICAgICAgIDxyZWN0IHg9IjkiIHk9IjM0IiB3aWR0aD0iMTIiIGhlaWdodD0iMiIvPiYjeGE7ICAgICAgICA8cGF0aCBkPSJNMTgsMzVjMCwxLjEtMS4zLDItMywycy0zLTAuOS0zLTJIMTh6Ii8+JiN4YTsgICAgPC9nPiYjeGE7PC9zdmc+;" parent="1" vertex="1">
          <mxGeometry x="1490" y="580" width="48" height="48" as="geometry" />
        </mxCell>
        <mxCell id="A5XyS65-MMVEptwIIjuN-81" value="" style="endArrow=none;html=1;rounded=0;entryX=0.5;entryY=1;entryDx=0;entryDy=0;exitX=0.75;exitY=0;exitDx=0;exitDy=0;" parent="1" source="A5XyS65-MMVEptwIIjuN-80" edge="1" target="axStD_DV7LErkX4Y_dTy-37">
          <mxGeometry width="50" height="50" relative="1" as="geometry">
            <mxPoint x="1840" y="560" as="sourcePoint" />
            <mxPoint x="1663" y="518" as="targetPoint" />
          </mxGeometry>
        </mxCell>
        <mxCell id="A5XyS65-MMVEptwIIjuN-82" value="" style="shape=image;verticalLabelPosition=bottom;verticalAlign=top;imageAspect=0;aspect=fixed;image=data:image/svg+xml,PHN2ZyB4bWxucz0iaHR0cDovL3d3dy53My5vcmcvMjAwMC9zdmciIHZlcnNpb249IjEiIHZpZXdCb3g9IjAgMCA0OCA0OCIgZW5hYmxlLWJhY2tncm91bmQ9Im5ldyAwIDAgNDggNDgiPiYjeGE7ICAgIDxwYXRoIGZpbGw9IiNGRjk4MDAiIGQ9Ik0yMiwzOGMtNC44LDAtNS03LTUtN3YtNmgxMHY2QzI3LDMxLDI2LjgsMzgsMjIsMzh6Ii8+JiN4YTsgICAgPGcgZmlsbD0iI0ZGQTcyNiI+JiN4YTsgICAgICAgIDxjaXJjbGUgY3g9IjMxIiBjeT0iMTkiIHI9IjIiLz4mI3hhOyAgICAgICAgPGNpcmNsZSBjeD0iMTMiIGN5PSIxOSIgcj0iMiIvPiYjeGE7ICAgIDwvZz4mI3hhOyAgICA8cGF0aCBmaWxsPSIjRkZCNzREIiBkPSJNMzEsMTNjMC03LjYtMTgtNS0xOCwwYzAsMS4xLDAsNS45LDAsN2MwLDUsNCw5LDksOXM5LTQsOS05QzMxLDE4LjksMzEsMTQuMSwzMSwxM3oiLz4mI3hhOyAgICA8cGF0aCBmaWxsPSIjNDI0MjQyIiBkPSJNMjIsNGMtNi4xLDAtMTAsNC45LTEwLDExYzAsMC44LDAsMi4zLDAsMi4zbDIsMS43di01bDEyLTRsNCw0djVsMi0xLjdjMCwwLDAtMS41LDAtMi4zYzAtNC0xLTgtNi05bC0xLTIgSDIyeiIvPiYjeGE7ICAgIDxnIGZpbGw9IiM3ODQ3MTkiPiYjeGE7ICAgICAgICA8Y2lyY2xlIGN4PSIyNiIgY3k9IjE5IiByPSIxIi8+JiN4YTsgICAgICAgIDxjaXJjbGUgY3g9IjE4IiBjeT0iMTkiIHI9IjEiLz4mI3hhOyAgICA8L2c+JiN4YTsgICAgPHBhdGggZmlsbD0iIzAwOTY4OCIgZD0iTTI3LDMxTDI3LDMxYzAsMC0xLjgsMi01LDJzLTUtMi01LTJTNiwzMyw2LDQ0aDMyQzM4LDMzLDI3LDMxLDI3LDMxeiIvPiYjeGE7ICAgIDxnIGZpbGw9IiNGRjk4MDAiPiYjeGE7ICAgICAgICA8cmVjdCB4PSIzNi4xIiB5PSI2LjEiIHRyYW5zZm9ybT0ibWF0cml4KC43MDcgLjcwNyAtLjcwNyAuNzA3IDE5Ljc4NyAtMjUuNzcpIiB3aWR0aD0iOS45IiBoZWlnaHQ9IjkuOSIvPiYjeGE7ICAgICAgICA8cmVjdCB4PSIzNiIgeT0iNiIgd2lkdGg9IjEwIiBoZWlnaHQ9IjEwIi8+JiN4YTsgICAgPC9nPiYjeGE7ICAgIDxjaXJjbGUgZmlsbD0iI0ZGRUIzQiIgY3g9IjQxIiBjeT0iMTEiIHI9IjMiLz4mI3hhOzwvc3ZnPg==;" parent="1" vertex="1">
          <mxGeometry x="1711" y="580" width="48" height="48" as="geometry" />
        </mxCell>
        <mxCell id="A5XyS65-MMVEptwIIjuN-83" value="" style="endArrow=none;html=1;rounded=0;entryX=0.5;entryY=1;entryDx=0;entryDy=0;exitX=0.479;exitY=0;exitDx=0;exitDy=0;exitPerimeter=0;" parent="1" source="A5XyS65-MMVEptwIIjuN-82" edge="1" target="axStD_DV7LErkX4Y_dTy-37">
          <mxGeometry width="50" height="50" relative="1" as="geometry">
            <mxPoint x="1626" y="580" as="sourcePoint" />
            <mxPoint x="1690" y="518" as="targetPoint" />
          </mxGeometry>
        </mxCell>
        <mxCell id="A5XyS65-MMVEptwIIjuN-84" value="" style="shape=image;verticalLabelPosition=bottom;verticalAlign=top;imageAspect=0;aspect=fixed;image=data:image/svg+xml,PHN2ZyB4bWxucz0iaHR0cDovL3d3dy53My5vcmcvMjAwMC9zdmciIHZlcnNpb249IjEiIHZpZXdCb3g9IjAgMCA0OCA0OCIgZW5hYmxlLWJhY2tncm91bmQ9Im5ldyAwIDAgNDggNDgiPiYjeGE7ICAgIDxwYXRoIGZpbGw9IiM1NDZFN0EiIGQ9Ik00NCwzMEg0VjExYzAtMi4yLDEuOC00LDQtNGgzMmMyLjIsMCw0LDEuOCw0LDRWMzB6Ii8+JiN4YTsgICAgPHBhdGggZmlsbD0iIzY0QjVGNiIgZD0iTTQwLDI3SDhjLTAuNiwwLTEtMC40LTEtMVYxMWMwLTAuNiwwLjQtMSwxLTFoMzJjMC42LDAsMSwwLjQsMSwxdjE1QzQxLDI2LjYsNDAuNiwyNyw0MCwyN3oiLz4mI3hhOyAgICA8cGF0aCBmaWxsPSIjNzg5MDlDIiBkPSJNNDAsNDFIOGMtMi4yLDAtNC0xLjgtNC00di03aDQwdjdDNDQsMzkuMiw0Mi4yLDQxLDQwLDQxeiIvPiYjeGE7ICAgIDxnIGZpbGw9IiMzNzQ3NEYiPiYjeGE7ICAgICAgICA8cmVjdCB4PSIyNyIgeT0iMzQiIHdpZHRoPSIxMiIgaGVpZ2h0PSIyIi8+JiN4YTsgICAgICAgIDxyZWN0IHg9IjkiIHk9IjM0IiB3aWR0aD0iMTIiIGhlaWdodD0iMiIvPiYjeGE7ICAgICAgICA8cGF0aCBkPSJNMTgsMzVjMCwxLjEtMS4zLDItMywycy0zLTAuOS0zLTJIMTh6Ii8+JiN4YTsgICAgPC9nPiYjeGE7PC9zdmc+;" parent="1" vertex="1">
          <mxGeometry x="1838" y="581" width="48" height="48" as="geometry" />
        </mxCell>
        <mxCell id="A5XyS65-MMVEptwIIjuN-85" value="" style="endArrow=none;html=1;rounded=0;entryX=0.5;entryY=1;entryDx=0;entryDy=0;exitX=0.75;exitY=0;exitDx=0;exitDy=0;" parent="1" source="A5XyS65-MMVEptwIIjuN-84" edge="1" target="axStD_DV7LErkX4Y_dTy-38">
          <mxGeometry width="50" height="50" relative="1" as="geometry">
            <mxPoint x="2054" y="533" as="sourcePoint" />
            <mxPoint x="1877" y="491" as="targetPoint" />
          </mxGeometry>
        </mxCell>
        <mxCell id="A5XyS65-MMVEptwIIjuN-86" value="" style="shape=image;verticalLabelPosition=bottom;verticalAlign=top;imageAspect=0;aspect=fixed;image=data:image/svg+xml,PHN2ZyB4bWxucz0iaHR0cDovL3d3dy53My5vcmcvMjAwMC9zdmciIHZlcnNpb249IjEiIHZpZXdCb3g9IjAgMCA0OCA0OCIgZW5hYmxlLWJhY2tncm91bmQ9Im5ldyAwIDAgNDggNDgiPiYjeGE7ICAgIDxwYXRoIGZpbGw9IiNGRjk4MDAiIGQ9Ik0yMiwzOGMtNC44LDAtNS03LTUtN3YtNmgxMHY2QzI3LDMxLDI2LjgsMzgsMjIsMzh6Ii8+JiN4YTsgICAgPGcgZmlsbD0iI0ZGQTcyNiI+JiN4YTsgICAgICAgIDxjaXJjbGUgY3g9IjMxIiBjeT0iMTkiIHI9IjIiLz4mI3hhOyAgICAgICAgPGNpcmNsZSBjeD0iMTMiIGN5PSIxOSIgcj0iMiIvPiYjeGE7ICAgIDwvZz4mI3hhOyAgICA8cGF0aCBmaWxsPSIjRkZCNzREIiBkPSJNMzEsMTNjMC03LjYtMTgtNS0xOCwwYzAsMS4xLDAsNS45LDAsN2MwLDUsNCw5LDksOXM5LTQsOS05QzMxLDE4LjksMzEsMTQuMSwzMSwxM3oiLz4mI3hhOyAgICA8cGF0aCBmaWxsPSIjNDI0MjQyIiBkPSJNMjIsNGMtNi4xLDAtMTAsNC45LTEwLDExYzAsMC44LDAsMi4zLDAsMi4zbDIsMS43di01bDEyLTRsNCw0djVsMi0xLjdjMCwwLDAtMS41LDAtMi4zYzAtNC0xLTgtNi05bC0xLTIgSDIyeiIvPiYjeGE7ICAgIDxnIGZpbGw9IiM3ODQ3MTkiPiYjeGE7ICAgICAgICA8Y2lyY2xlIGN4PSIyNiIgY3k9IjE5IiByPSIxIi8+JiN4YTsgICAgICAgIDxjaXJjbGUgY3g9IjE4IiBjeT0iMTkiIHI9IjEiLz4mI3hhOyAgICA8L2c+JiN4YTsgICAgPHBhdGggZmlsbD0iIzAwOTY4OCIgZD0iTTI3LDMxTDI3LDMxYzAsMC0xLjgsMi01LDJzLTUtMi01LTJTNiwzMyw2LDQ0aDMyQzM4LDMzLDI3LDMxLDI3LDMxeiIvPiYjeGE7ICAgIDxnIGZpbGw9IiNGRjk4MDAiPiYjeGE7ICAgICAgICA8cmVjdCB4PSIzNi4xIiB5PSI2LjEiIHRyYW5zZm9ybT0ibWF0cml4KC43MDcgLjcwNyAtLjcwNyAuNzA3IDE5Ljc4NyAtMjUuNzcpIiB3aWR0aD0iOS45IiBoZWlnaHQ9IjkuOSIvPiYjeGE7ICAgICAgICA8cmVjdCB4PSIzNiIgeT0iNiIgd2lkdGg9IjEwIiBoZWlnaHQ9IjEwIi8+JiN4YTsgICAgPC9nPiYjeGE7ICAgIDxjaXJjbGUgZmlsbD0iI0ZGRUIzQiIgY3g9IjQxIiBjeT0iMTEiIHI9IjMiLz4mI3hhOzwvc3ZnPg==;" parent="1" vertex="1">
          <mxGeometry x="2006" y="572" width="48" height="48" as="geometry" />
        </mxCell>
        <mxCell id="A5XyS65-MMVEptwIIjuN-87" value="" style="endArrow=none;html=1;rounded=0;entryX=0.5;entryY=1;entryDx=0;entryDy=0;exitX=0.479;exitY=0;exitDx=0;exitDy=0;exitPerimeter=0;" parent="1" source="A5XyS65-MMVEptwIIjuN-86" edge="1" target="axStD_DV7LErkX4Y_dTy-38">
          <mxGeometry width="50" height="50" relative="1" as="geometry">
            <mxPoint x="1840" y="553" as="sourcePoint" />
            <mxPoint x="1904" y="491" as="targetPoint" />
          </mxGeometry>
        </mxCell>
        <mxCell id="axStD_DV7LErkX4Y_dTy-1" value="&lt;div&gt;&lt;font style=&quot;font-size: 25px;&quot;&gt;&lt;b&gt;x&lt;/b&gt;&lt;/font&gt;&lt;/div&gt;&lt;font style=&quot;font-size: 25px;&quot;&gt;&lt;b&gt;15&lt;/b&gt;&lt;/font&gt;" style="text;strokeColor=none;align=center;fillColor=none;html=1;verticalAlign=middle;whiteSpace=wrap;rounded=0;" parent="1" vertex="1">
          <mxGeometry x="-240" y="650" width="60" height="30" as="geometry" />
        </mxCell>
        <mxCell id="axStD_DV7LErkX4Y_dTy-2" value="&lt;div&gt;&lt;font style=&quot;font-size: 25px;&quot;&gt;&lt;b&gt;x&lt;/b&gt;&lt;/font&gt;&lt;/div&gt;&lt;span style=&quot;font-size: 25px;&quot;&gt;&lt;b&gt;30&lt;/b&gt;&lt;/span&gt;" style="text;strokeColor=none;align=center;fillColor=none;html=1;verticalAlign=middle;whiteSpace=wrap;rounded=0;" parent="1" vertex="1">
          <mxGeometry x="-60" y="650" width="60" height="30" as="geometry" />
        </mxCell>
        <mxCell id="axStD_DV7LErkX4Y_dTy-3" value="&lt;div&gt;&lt;font style=&quot;font-size: 25px;&quot;&gt;&lt;b&gt;x&lt;/b&gt;&lt;/font&gt;&lt;/div&gt;&lt;font style=&quot;font-size: 25px;&quot;&gt;&lt;b&gt;15&lt;/b&gt;&lt;/font&gt;" style="text;strokeColor=none;align=center;fillColor=none;html=1;verticalAlign=middle;whiteSpace=wrap;rounded=0;" parent="1" vertex="1">
          <mxGeometry x="142" y="640" width="60" height="30" as="geometry" />
        </mxCell>
        <mxCell id="axStD_DV7LErkX4Y_dTy-4" value="&lt;div&gt;&lt;font style=&quot;font-size: 25px;&quot;&gt;&lt;b&gt;x&lt;/b&gt;&lt;/font&gt;&lt;/div&gt;&lt;font style=&quot;font-size: 25px;&quot;&gt;&lt;b&gt;15&lt;/b&gt;&lt;/font&gt;" style="text;strokeColor=none;align=center;fillColor=none;html=1;verticalAlign=middle;whiteSpace=wrap;rounded=0;" parent="1" vertex="1">
          <mxGeometry x="258" y="647" width="60" height="30" as="geometry" />
        </mxCell>
        <mxCell id="axStD_DV7LErkX4Y_dTy-5" value="&lt;div&gt;&lt;font style=&quot;font-size: 25px;&quot;&gt;&lt;b&gt;x&lt;/b&gt;&lt;/font&gt;&lt;/div&gt;&lt;font style=&quot;font-size: 25px;&quot;&gt;&lt;b&gt;15&lt;/b&gt;&lt;/font&gt;" style="text;strokeColor=none;align=center;fillColor=none;html=1;verticalAlign=middle;whiteSpace=wrap;rounded=0;" parent="1" vertex="1">
          <mxGeometry x="380" y="646" width="60" height="30" as="geometry" />
        </mxCell>
        <mxCell id="axStD_DV7LErkX4Y_dTy-6" value="&lt;div&gt;&lt;font style=&quot;font-size: 25px;&quot;&gt;&lt;b&gt;x&lt;/b&gt;&lt;/font&gt;&lt;/div&gt;&lt;span style=&quot;font-size: 25px;&quot;&gt;&lt;b&gt;30&lt;/b&gt;&lt;/span&gt;" style="text;strokeColor=none;align=center;fillColor=none;html=1;verticalAlign=middle;whiteSpace=wrap;rounded=0;" parent="1" vertex="1">
          <mxGeometry x="537" y="643" width="60" height="30" as="geometry" />
        </mxCell>
        <mxCell id="axStD_DV7LErkX4Y_dTy-7" value="&lt;div&gt;&lt;font style=&quot;font-size: 25px;&quot;&gt;&lt;b&gt;x&lt;/b&gt;&lt;/font&gt;&lt;/div&gt;&lt;font style=&quot;font-size: 25px;&quot;&gt;&lt;b&gt;15&lt;/b&gt;&lt;/font&gt;" style="text;strokeColor=none;align=center;fillColor=none;html=1;verticalAlign=middle;whiteSpace=wrap;rounded=0;" parent="1" vertex="1">
          <mxGeometry x="628" y="640" width="60" height="30" as="geometry" />
        </mxCell>
        <mxCell id="axStD_DV7LErkX4Y_dTy-8" value="&lt;div&gt;&lt;font style=&quot;font-size: 25px;&quot;&gt;&lt;b&gt;x&lt;/b&gt;&lt;/font&gt;&lt;/div&gt;&lt;font style=&quot;font-size: 25px;&quot;&gt;&lt;b&gt;15&lt;/b&gt;&lt;/font&gt;" style="text;strokeColor=none;align=center;fillColor=none;html=1;verticalAlign=middle;whiteSpace=wrap;rounded=0;" parent="1" vertex="1">
          <mxGeometry x="774" y="643" width="60" height="30" as="geometry" />
        </mxCell>
        <mxCell id="axStD_DV7LErkX4Y_dTy-9" value="&lt;div&gt;&lt;font style=&quot;font-size: 25px;&quot;&gt;&lt;b&gt;x&lt;/b&gt;&lt;/font&gt;&lt;/div&gt;&lt;font style=&quot;font-size: 25px;&quot;&gt;&lt;b&gt;15&lt;/b&gt;&lt;/font&gt;" style="text;strokeColor=none;align=center;fillColor=none;html=1;verticalAlign=middle;whiteSpace=wrap;rounded=0;" parent="1" vertex="1">
          <mxGeometry x="890" y="642" width="60" height="30" as="geometry" />
        </mxCell>
        <mxCell id="axStD_DV7LErkX4Y_dTy-10" value="&lt;div&gt;&lt;font style=&quot;font-size: 25px;&quot;&gt;&lt;b&gt;x&lt;/b&gt;&lt;/font&gt;&lt;/div&gt;&lt;span style=&quot;font-size: 25px;&quot;&gt;&lt;b&gt;30&lt;/b&gt;&lt;/span&gt;" style="text;strokeColor=none;align=center;fillColor=none;html=1;verticalAlign=middle;whiteSpace=wrap;rounded=0;" parent="1" vertex="1">
          <mxGeometry x="1075.33" y="646" width="60" height="30" as="geometry" />
        </mxCell>
        <mxCell id="axStD_DV7LErkX4Y_dTy-11" value="&lt;div&gt;&lt;font style=&quot;font-size: 25px;&quot;&gt;&lt;b&gt;x&lt;/b&gt;&lt;/font&gt;&lt;/div&gt;&lt;font style=&quot;font-size: 25px;&quot;&gt;&lt;b&gt;15&lt;/b&gt;&lt;/font&gt;" style="text;strokeColor=none;align=center;fillColor=none;html=1;verticalAlign=middle;whiteSpace=wrap;rounded=0;" parent="1" vertex="1">
          <mxGeometry x="1178" y="641" width="60" height="30" as="geometry" />
        </mxCell>
        <mxCell id="axStD_DV7LErkX4Y_dTy-12" value="&lt;div&gt;&lt;font style=&quot;font-size: 25px;&quot;&gt;&lt;b&gt;x&lt;/b&gt;&lt;/font&gt;&lt;/div&gt;&lt;font style=&quot;font-size: 25px;&quot;&gt;&lt;b&gt;15&lt;/b&gt;&lt;/font&gt;" style="text;strokeColor=none;align=center;fillColor=none;html=1;verticalAlign=middle;whiteSpace=wrap;rounded=0;" parent="1" vertex="1">
          <mxGeometry x="1300" y="641" width="60" height="30" as="geometry" />
        </mxCell>
        <mxCell id="axStD_DV7LErkX4Y_dTy-13" value="&lt;div&gt;&lt;font style=&quot;font-size: 25px;&quot;&gt;&lt;b&gt;x&lt;/b&gt;&lt;/font&gt;&lt;/div&gt;&lt;font style=&quot;font-size: 25px;&quot;&gt;&lt;b&gt;15&lt;/b&gt;&lt;/font&gt;" style="text;strokeColor=none;align=center;fillColor=none;html=1;verticalAlign=middle;whiteSpace=wrap;rounded=0;" parent="1" vertex="1">
          <mxGeometry x="1484" y="634" width="60" height="30" as="geometry" />
        </mxCell>
        <mxCell id="axStD_DV7LErkX4Y_dTy-14" value="&lt;div&gt;&lt;font style=&quot;font-size: 25px;&quot;&gt;&lt;b&gt;x&lt;/b&gt;&lt;/font&gt;&lt;/div&gt;&lt;span style=&quot;font-size: 25px;&quot;&gt;&lt;b&gt;30&lt;/b&gt;&lt;/span&gt;" style="text;strokeColor=none;align=center;fillColor=none;html=1;verticalAlign=middle;whiteSpace=wrap;rounded=0;" parent="1" vertex="1">
          <mxGeometry x="1705" y="634" width="60" height="30" as="geometry" />
        </mxCell>
        <mxCell id="axStD_DV7LErkX4Y_dTy-15" value="&lt;div&gt;&lt;font style=&quot;font-size: 25px;&quot;&gt;&lt;b&gt;x&lt;/b&gt;&lt;/font&gt;&lt;/div&gt;&lt;font style=&quot;font-size: 25px;&quot;&gt;&lt;b&gt;15&lt;/b&gt;&lt;/font&gt;" style="text;strokeColor=none;align=center;fillColor=none;html=1;verticalAlign=middle;whiteSpace=wrap;rounded=0;" parent="1" vertex="1">
          <mxGeometry x="1832" y="638" width="60" height="30" as="geometry" />
        </mxCell>
        <mxCell id="axStD_DV7LErkX4Y_dTy-16" value="&lt;div&gt;&lt;font style=&quot;font-size: 25px;&quot;&gt;&lt;b&gt;x&lt;/b&gt;&lt;/font&gt;&lt;/div&gt;&lt;font style=&quot;font-size: 25px;&quot;&gt;&lt;b&gt;15&lt;/b&gt;&lt;/font&gt;" style="text;strokeColor=none;align=center;fillColor=none;html=1;verticalAlign=middle;whiteSpace=wrap;rounded=0;" parent="1" vertex="1">
          <mxGeometry x="2000" y="634" width="60" height="30" as="geometry" />
        </mxCell>
        <mxCell id="axStD_DV7LErkX4Y_dTy-19" style="edgeStyle=none;rounded=0;orthogonalLoop=1;jettySize=auto;html=1;sourcePerimeterSpacing=5;endArrow=none;endFill=0;targetPerimeterSpacing=5;dashed=1;" parent="1" edge="1">
          <mxGeometry relative="1" as="geometry">
            <mxPoint x="80" y="682" as="sourcePoint" />
            <mxPoint x="80" y="560" as="targetPoint" />
          </mxGeometry>
        </mxCell>
        <mxCell id="axStD_DV7LErkX4Y_dTy-20" style="edgeStyle=none;rounded=0;orthogonalLoop=1;jettySize=auto;html=1;sourcePerimeterSpacing=5;endArrow=none;endFill=0;targetPerimeterSpacing=5;strokeWidth=3;" parent="1" edge="1">
          <mxGeometry relative="1" as="geometry">
            <mxPoint x="350" y="700" as="sourcePoint" />
            <mxPoint x="350" y="549" as="targetPoint" />
          </mxGeometry>
        </mxCell>
        <mxCell id="axStD_DV7LErkX4Y_dTy-24" style="edgeStyle=none;rounded=0;orthogonalLoop=1;jettySize=auto;html=1;sourcePerimeterSpacing=5;endArrow=none;endFill=0;targetPerimeterSpacing=5;dashed=1;" parent="1" edge="1">
          <mxGeometry relative="1" as="geometry">
            <mxPoint x="609.17" y="686" as="sourcePoint" />
            <mxPoint x="609.17" y="564" as="targetPoint" />
          </mxGeometry>
        </mxCell>
        <mxCell id="axStD_DV7LErkX4Y_dTy-25" style="edgeStyle=none;rounded=0;orthogonalLoop=1;jettySize=auto;html=1;sourcePerimeterSpacing=5;endArrow=none;endFill=0;targetPerimeterSpacing=5;dashed=1;" parent="1" edge="1">
          <mxGeometry relative="1" as="geometry">
            <mxPoint x="1810" y="683" as="sourcePoint" />
            <mxPoint x="1810" y="561" as="targetPoint" />
          </mxGeometry>
        </mxCell>
        <mxCell id="axStD_DV7LErkX4Y_dTy-26" value="" style="shape=image;verticalLabelPosition=bottom;verticalAlign=top;imageAspect=0;aspect=fixed;image=data:image/svg+xml,PHN2ZyB4bWxucz0iaHR0cDovL3d3dy53My5vcmcvMjAwMC9zdmciIHZlcnNpb249IjEiIHZpZXdCb3g9IjAgMCA0OCA0OCIgZW5hYmxlLWJhY2tncm91bmQ9Im5ldyAwIDAgNDggNDgiPiYjeGE7ICAgIDxwYXRoIGZpbGw9IiNGRkEwMDAiIGQ9Ik0zOCwxMkgyMmwtNC00SDhjLTIuMiwwLTQsMS44LTQsNHYyNGMwLDIuMiwxLjgsNCw0LDRoMzFjMS43LDAsMy0xLjMsMy0zVjE2QzQyLDEzLjgsNDAuMiwxMiwzOCwxMnoiLz4mI3hhOyAgICA8cGF0aCBmaWxsPSIjRkZDQTI4IiBkPSJNNDIuMiwxOEgxNS4zYy0xLjksMC0zLjYsMS40LTMuOSwzLjNMOCw0MGgzMS43YzEuOSwwLDMuNi0xLjQsMy45LTMuM2wyLjUtMTRDNDYuNiwyMC4zLDQ0LjcsMTgsNDIuMiwxOHoiLz4mI3hhOzwvc3ZnPg==;" parent="1" vertex="1">
          <mxGeometry x="230" y="318" width="48" height="48" as="geometry" />
        </mxCell>
        <mxCell id="axStD_DV7LErkX4Y_dTy-27" value="" style="shape=image;verticalLabelPosition=bottom;verticalAlign=top;imageAspect=0;aspect=fixed;image=data:image/svg+xml,PHN2ZyB4bWxucz0iaHR0cDovL3d3dy53My5vcmcvMjAwMC9zdmciIHZlcnNpb249IjEiIHZpZXdCb3g9IjAgMCA0OCA0OCIgZW5hYmxlLWJhY2tncm91bmQ9Im5ldyAwIDAgNDggNDgiPiYjeGE7ICAgIDxwYXRoIGZpbGw9IiNGRkEwMDAiIGQ9Ik0zOCwxMkgyMmwtNC00SDhjLTIuMiwwLTQsMS44LTQsNHYyNGMwLDIuMiwxLjgsNCw0LDRoMzFjMS43LDAsMy0xLjMsMy0zVjE2QzQyLDEzLjgsNDAuMiwxMiwzOCwxMnoiLz4mI3hhOyAgICA8cGF0aCBmaWxsPSIjRkZDQTI4IiBkPSJNNDIuMiwxOEgxNS4zYy0xLjksMC0zLjYsMS40LTMuOSwzLjNMOCw0MGgzMS43YzEuOSwwLDMuNi0xLjQsMy45LTMuM2wyLjUtMTRDNDYuNiwyMC4zLDQ0LjcsMTgsNDIuMiwxOHoiLz4mI3hhOzwvc3ZnPg==;" parent="1" vertex="1">
          <mxGeometry x="586" y="318" width="48" height="48" as="geometry" />
        </mxCell>
        <mxCell id="axStD_DV7LErkX4Y_dTy-28" value="" style="shape=image;verticalLabelPosition=bottom;verticalAlign=top;imageAspect=0;aspect=fixed;image=data:image/svg+xml,PHN2ZyB4bWxucz0iaHR0cDovL3d3dy53My5vcmcvMjAwMC9zdmciIHZlcnNpb249IjEiIHZpZXdCb3g9IjAgMCA0OCA0OCIgZW5hYmxlLWJhY2tncm91bmQ9Im5ldyAwIDAgNDggNDgiPiYjeGE7ICAgIDxwYXRoIGZpbGw9IiNGRkEwMDAiIGQ9Ik0zOCwxMkgyMmwtNC00SDhjLTIuMiwwLTQsMS44LTQsNHYyNGMwLDIuMiwxLjgsNCw0LDRoMzFjMS43LDAsMy0xLjMsMy0zVjE2QzQyLDEzLjgsNDAuMiwxMiwzOCwxMnoiLz4mI3hhOyAgICA8cGF0aCBmaWxsPSIjRkZDQTI4IiBkPSJNNDIuMiwxOEgxNS4zYy0xLjksMC0zLjYsMS40LTMuOSwzLjNMOCw0MGgzMS43YzEuOSwwLDMuNi0xLjQsMy45LTMuM2wyLjUtMTRDNDYuNiwyMC4zLDQ0LjcsMTgsNDIuMiwxOHoiLz4mI3hhOzwvc3ZnPg==;" parent="1" vertex="1">
          <mxGeometry x="1104.33" y="310" width="48" height="48" as="geometry" />
        </mxCell>
        <mxCell id="axStD_DV7LErkX4Y_dTy-29" value="" style="shape=image;verticalLabelPosition=bottom;verticalAlign=top;imageAspect=0;aspect=fixed;image=data:image/svg+xml,PHN2ZyB4bWxucz0iaHR0cDovL3d3dy53My5vcmcvMjAwMC9zdmciIHZlcnNpb249IjEiIHZpZXdCb3g9IjAgMCA0OCA0OCIgZW5hYmxlLWJhY2tncm91bmQ9Im5ldyAwIDAgNDggNDgiPiYjeGE7ICAgIDxwYXRoIGZpbGw9IiNGRkEwMDAiIGQ9Ik0zOCwxMkgyMmwtNC00SDhjLTIuMiwwLTQsMS44LTQsNHYyNGMwLDIuMiwxLjgsNCw0LDRoMzFjMS43LDAsMy0xLjMsMy0zVjE2QzQyLDEzLjgsNDAuMiwxMiwzOCwxMnoiLz4mI3hhOyAgICA8cGF0aCBmaWxsPSIjRkZDQTI4IiBkPSJNNDIuMiwxOEgxNS4zYy0xLjksMC0zLjYsMS40LTMuOSwzLjNMOCw0MGgzMS43YzEuOSwwLDMuNi0xLjQsMy45LTMuM2wyLjUtMTRDNDYuNiwyMC4zLDQ0LjcsMTgsNDIuMiwxOHoiLz4mI3hhOzwvc3ZnPg==;" parent="1" vertex="1">
          <mxGeometry x="1641" y="337" width="48" height="48" as="geometry" />
        </mxCell>
        <mxCell id="axStD_DV7LErkX4Y_dTy-30" value="" style="shape=image;verticalLabelPosition=bottom;verticalAlign=top;imageAspect=0;aspect=fixed;image=data:image/svg+xml,PHN2ZyB4bWxucz0iaHR0cDovL3d3dy53My5vcmcvMjAwMC9zdmciIHZlcnNpb249IjEiIHZpZXdCb3g9IjAgMCA0OCA0OCIgZW5hYmxlLWJhY2tncm91bmQ9Im5ldyAwIDAgNDggNDgiPiYjeGE7ICAgIDxwYXRoIGZpbGw9IiNGRkEwMDAiIGQ9Ik0zOCwxMkgyMmwtNC00SDhjLTIuMiwwLTQsMS44LTQsNHYyNGMwLDIuMiwxLjgsNCw0LDRoMzFjMS43LDAsMy0xLjMsMy0zVjE2QzQyLDEzLjgsNDAuMiwxMiwzOCwxMnoiLz4mI3hhOyAgICA8cGF0aCBmaWxsPSIjRkZDQTI4IiBkPSJNNDIuMiwxOEgxNS4zYy0xLjksMC0zLjYsMS40LTMuOSwzLjNMOCw0MGgzMS43YzEuOSwwLDMuNi0xLjQsMy45LTMuM2wyLjUtMTRDNDYuNiwyMC4zLDQ0LjcsMTgsNDIuMiwxOHoiLz4mI3hhOzwvc3ZnPg==;" parent="1" vertex="1">
          <mxGeometry x="470" y="448" width="48" height="48" as="geometry" />
        </mxCell>
        <mxCell id="axStD_DV7LErkX4Y_dTy-31" value="" style="shape=image;verticalLabelPosition=bottom;verticalAlign=top;imageAspect=0;aspect=fixed;image=data:image/svg+xml,PHN2ZyB4bWxucz0iaHR0cDovL3d3dy53My5vcmcvMjAwMC9zdmciIHZlcnNpb249IjEiIHZpZXdCb3g9IjAgMCA0OCA0OCIgZW5hYmxlLWJhY2tncm91bmQ9Im5ldyAwIDAgNDggNDgiPiYjeGE7ICAgIDxwYXRoIGZpbGw9IiNGRkEwMDAiIGQ9Ik0zOCwxMkgyMmwtNC00SDhjLTIuMiwwLTQsMS44LTQsNHYyNGMwLDIuMiwxLjgsNCw0LDRoMzFjMS43LDAsMy0xLjMsMy0zVjE2QzQyLDEzLjgsNDAuMiwxMiwzOCwxMnoiLz4mI3hhOyAgICA8cGF0aCBmaWxsPSIjRkZDQTI4IiBkPSJNNDIuMiwxOEgxNS4zYy0xLjksMC0zLjYsMS40LTMuOSwzLjNMOCw0MGgzMS43YzEuOSwwLDMuNi0xLjQsMy45LTMuM2wyLjUtMTRDNDYuNiwyMC4zLDQ0LjcsMTgsNDIuMiwxOHoiLz4mI3hhOzwvc3ZnPg==;" parent="1" vertex="1">
          <mxGeometry x="216" y="452" width="48" height="48" as="geometry" />
        </mxCell>
        <mxCell id="axStD_DV7LErkX4Y_dTy-32" value="" style="shape=image;verticalLabelPosition=bottom;verticalAlign=top;imageAspect=0;aspect=fixed;image=data:image/svg+xml,PHN2ZyB4bWxucz0iaHR0cDovL3d3dy53My5vcmcvMjAwMC9zdmciIHZlcnNpb249IjEiIHZpZXdCb3g9IjAgMCA0OCA0OCIgZW5hYmxlLWJhY2tncm91bmQ9Im5ldyAwIDAgNDggNDgiPiYjeGE7ICAgIDxwYXRoIGZpbGw9IiNGRkEwMDAiIGQ9Ik0zOCwxMkgyMmwtNC00SDhjLTIuMiwwLTQsMS44LTQsNHYyNGMwLDIuMiwxLjgsNCw0LDRoMzFjMS43LDAsMy0xLjMsMy0zVjE2QzQyLDEzLjgsNDAuMiwxMiwzOCwxMnoiLz4mI3hhOyAgICA8cGF0aCBmaWxsPSIjRkZDQTI4IiBkPSJNNDIuMiwxOEgxNS4zYy0xLjksMC0zLjYsMS40LTMuOSwzLjNMOCw0MGgzMS43YzEuOSwwLDMuNi0xLjQsMy45LTMuM2wyLjUtMTRDNDYuNiwyMC4zLDQ0LjcsMTgsNDIuMiwxOHoiLz4mI3hhOzwvc3ZnPg==;" parent="1" vertex="1">
          <mxGeometry x="-134" y="448" width="48" height="48" as="geometry" />
        </mxCell>
        <mxCell id="axStD_DV7LErkX4Y_dTy-34" value="" style="shape=image;verticalLabelPosition=bottom;verticalAlign=top;imageAspect=0;aspect=fixed;image=data:image/svg+xml,PHN2ZyB4bWxucz0iaHR0cDovL3d3dy53My5vcmcvMjAwMC9zdmciIHZlcnNpb249IjEiIHZpZXdCb3g9IjAgMCA0OCA0OCIgZW5hYmxlLWJhY2tncm91bmQ9Im5ldyAwIDAgNDggNDgiPiYjeGE7ICAgIDxwYXRoIGZpbGw9IiNGRkEwMDAiIGQ9Ik0zOCwxMkgyMmwtNC00SDhjLTIuMiwwLTQsMS44LTQsNHYyNGMwLDIuMiwxLjgsNCw0LDRoMzFjMS43LDAsMy0xLjMsMy0zVjE2QzQyLDEzLjgsNDAuMiwxMiwzOCwxMnoiLz4mI3hhOyAgICA8cGF0aCBmaWxsPSIjRkZDQTI4IiBkPSJNNDIuMiwxOEgxNS4zYy0xLjksMC0zLjYsMS40LTMuOSwzLjNMOCw0MGgzMS43YzEuOSwwLDMuNi0xLjQsMy45LTMuM2wyLjUtMTRDNDYuNiwyMC4zLDQ0LjcsMTgsNDIuMiwxOHoiLz4mI3hhOzwvc3ZnPg==;" parent="1" vertex="1">
          <mxGeometry x="721" y="450" width="48" height="48" as="geometry" />
        </mxCell>
        <mxCell id="axStD_DV7LErkX4Y_dTy-35" value="" style="shape=image;verticalLabelPosition=bottom;verticalAlign=top;imageAspect=0;aspect=fixed;image=data:image/svg+xml,PHN2ZyB4bWxucz0iaHR0cDovL3d3dy53My5vcmcvMjAwMC9zdmciIHZlcnNpb249IjEiIHZpZXdCb3g9IjAgMCA0OCA0OCIgZW5hYmxlLWJhY2tncm91bmQ9Im5ldyAwIDAgNDggNDgiPiYjeGE7ICAgIDxwYXRoIGZpbGw9IiNGRkEwMDAiIGQ9Ik0zOCwxMkgyMmwtNC00SDhjLTIuMiwwLTQsMS44LTQsNHYyNGMwLDIuMiwxLjgsNCw0LDRoMzFjMS43LDAsMy0xLjMsMy0zVjE2QzQyLDEzLjgsNDAuMiwxMiwzOCwxMnoiLz4mI3hhOyAgICA8cGF0aCBmaWxsPSIjRkZDQTI4IiBkPSJNNDIuMiwxOEgxNS4zYy0xLjksMC0zLjYsMS40LTMuOSwzLjNMOCw0MGgzMS43YzEuOSwwLDMuNi0xLjQsMy45LTMuM2wyLjUtMTRDNDYuNiwyMC4zLDQ0LjcsMTgsNDIuMiwxOHoiLz4mI3hhOzwvc3ZnPg==;" parent="1" vertex="1">
          <mxGeometry x="1027.33" y="440" width="48" height="48" as="geometry" />
        </mxCell>
        <mxCell id="axStD_DV7LErkX4Y_dTy-36" value="" style="shape=image;verticalLabelPosition=bottom;verticalAlign=top;imageAspect=0;aspect=fixed;image=data:image/svg+xml,PHN2ZyB4bWxucz0iaHR0cDovL3d3dy53My5vcmcvMjAwMC9zdmciIHZlcnNpb249IjEiIHZpZXdCb3g9IjAgMCA0OCA0OCIgZW5hYmxlLWJhY2tncm91bmQ9Im5ldyAwIDAgNDggNDgiPiYjeGE7ICAgIDxwYXRoIGZpbGw9IiNGRkEwMDAiIGQ9Ik0zOCwxMkgyMmwtNC00SDhjLTIuMiwwLTQsMS44LTQsNHYyNGMwLDIuMiwxLjgsNCw0LDRoMzFjMS43LDAsMy0xLjMsMy0zVjE2QzQyLDEzLjgsNDAuMiwxMiwzOCwxMnoiLz4mI3hhOyAgICA8cGF0aCBmaWxsPSIjRkZDQTI4IiBkPSJNNDIuMiwxOEgxNS4zYy0xLjksMC0zLjYsMS40LTMuOSwzLjNMOCw0MGgzMS43YzEuOSwwLDMuNi0xLjQsMy45LTMuM2wyLjUtMTRDNDYuNiwyMC4zLDQ0LjcsMTgsNDIuMiwxOHoiLz4mI3hhOzwvc3ZnPg==;" parent="1" vertex="1">
          <mxGeometry x="1229.33" y="437" width="48" height="48" as="geometry" />
        </mxCell>
        <mxCell id="axStD_DV7LErkX4Y_dTy-37" value="" style="shape=image;verticalLabelPosition=bottom;verticalAlign=top;imageAspect=0;aspect=fixed;image=data:image/svg+xml,PHN2ZyB4bWxucz0iaHR0cDovL3d3dy53My5vcmcvMjAwMC9zdmciIHZlcnNpb249IjEiIHZpZXdCb3g9IjAgMCA0OCA0OCIgZW5hYmxlLWJhY2tncm91bmQ9Im5ldyAwIDAgNDggNDgiPiYjeGE7ICAgIDxwYXRoIGZpbGw9IiNGRkEwMDAiIGQ9Ik0zOCwxMkgyMmwtNC00SDhjLTIuMiwwLTQsMS44LTQsNHYyNGMwLDIuMiwxLjgsNCw0LDRoMzFjMS43LDAsMy0xLjMsMy0zVjE2QzQyLDEzLjgsNDAuMiwxMiwzOCwxMnoiLz4mI3hhOyAgICA8cGF0aCBmaWxsPSIjRkZDQTI4IiBkPSJNNDIuMiwxOEgxNS4zYy0xLjksMC0zLjYsMS40LTMuOSwzLjNMOCw0MGgzMS43YzEuOSwwLDMuNi0xLjQsMy45LTMuM2wyLjUtMTRDNDYuNiwyMC4zLDQ0LjcsMTgsNDIuMiwxOHoiLz4mI3hhOzwvc3ZnPg==;" parent="1" vertex="1">
          <mxGeometry x="1593" y="470" width="48" height="48" as="geometry" />
        </mxCell>
        <mxCell id="axStD_DV7LErkX4Y_dTy-38" value="" style="shape=image;verticalLabelPosition=bottom;verticalAlign=top;imageAspect=0;aspect=fixed;image=data:image/svg+xml,PHN2ZyB4bWxucz0iaHR0cDovL3d3dy53My5vcmcvMjAwMC9zdmciIHZlcnNpb249IjEiIHZpZXdCb3g9IjAgMCA0OCA0OCIgZW5hYmxlLWJhY2tncm91bmQ9Im5ldyAwIDAgNDggNDgiPiYjeGE7ICAgIDxwYXRoIGZpbGw9IiNGRkEwMDAiIGQ9Ik0zOCwxMkgyMmwtNC00SDhjLTIuMiwwLTQsMS44LTQsNHYyNGMwLDIuMiwxLjgsNCw0LDRoMzFjMS43LDAsMy0xLjMsMy0zVjE2QzQyLDEzLjgsNDAuMiwxMiwzOCwxMnoiLz4mI3hhOyAgICA8cGF0aCBmaWxsPSIjRkZDQTI4IiBkPSJNNDIuMiwxOEgxNS4zYy0xLjksMC0zLjYsMS40LTMuOSwzLjNMOCw0MGgzMS43YzEuOSwwLDMuNi0xLjQsMy45LTMuM2wyLjUtMTRDNDYuNiwyMC4zLDQ0LjcsMTgsNDIuMiwxOHoiLz4mI3hhOzwvc3ZnPg==;" parent="1" vertex="1">
          <mxGeometry x="1860" y="443" width="48" height="48" as="geometry" />
        </mxCell>
        <mxCell id="axStD_DV7LErkX4Y_dTy-39" value="&lt;b style=&quot;&quot;&gt;&lt;font style=&quot;font-size: 22px;&quot;&gt;DEPARTAMENTO&lt;/font&gt;&lt;/b&gt;" style="text;strokeColor=none;align=center;fillColor=none;html=1;verticalAlign=middle;whiteSpace=wrap;rounded=0;" parent="1" vertex="1">
          <mxGeometry x="1000" y="98" width="60" height="30" as="geometry" />
        </mxCell>
        <mxCell id="axStD_DV7LErkX4Y_dTy-40" value="" style="shape=image;verticalLabelPosition=bottom;verticalAlign=top;imageAspect=0;aspect=fixed;image=data:image/svg+xml,PHN2ZyB4bWxucz0iaHR0cDovL3d3dy53My5vcmcvMjAwMC9zdmciIHZlcnNpb249IjEiIHZpZXdCb3g9IjAgMCA0OCA0OCIgZW5hYmxlLWJhY2tncm91bmQ9Im5ldyAwIDAgNDggNDgiPiYjeGE7ICAgIDxwYXRoIGZpbGw9IiNGRkEwMDAiIGQ9Ik0zOCwxMkgyMmwtNC00SDhjLTIuMiwwLTQsMS44LTQsNHYyNGMwLDIuMiwxLjgsNCw0LDRoMzFjMS43LDAsMy0xLjMsMy0zVjE2QzQyLDEzLjgsNDAuMiwxMiwzOCwxMnoiLz4mI3hhOyAgICA8cGF0aCBmaWxsPSIjRkZDQTI4IiBkPSJNNDIuMiwxOEgxNS4zYy0xLjksMC0zLjYsMS40LTMuOSwzLjNMOCw0MGgzMS43YzEuOSwwLDMuNi0xLjQsMy45LTMuM2wyLjUtMTRDNDYuNiwyMC4zLDQ0LjcsMTgsNDIuMiwxOHoiLz4mI3hhOzwvc3ZnPg==;" parent="1" vertex="1">
          <mxGeometry x="1058" y="120" width="48" height="48" as="geometry" />
        </mxCell>
        <mxCell id="axStD_DV7LErkX4Y_dTy-41" style="edgeStyle=none;rounded=0;orthogonalLoop=1;jettySize=auto;html=1;sourcePerimeterSpacing=5;endArrow=none;endFill=0;targetPerimeterSpacing=5;exitX=1;exitY=0.5;exitDx=0;exitDy=0;entryX=0;entryY=0.5;entryDx=0;entryDy=0;" parent="1" source="8--HhbSZYtI3ddgJnD71-10" target="axStD_DV7LErkX4Y_dTy-40" edge="1">
          <mxGeometry relative="1" as="geometry">
            <mxPoint x="972.4000000000001" y="272" as="sourcePoint" />
            <mxPoint x="1058" y="130" as="targetPoint" />
          </mxGeometry>
        </mxCell>
        <mxCell id="axStD_DV7LErkX4Y_dTy-43" style="edgeStyle=none;rounded=0;orthogonalLoop=1;jettySize=auto;html=1;sourcePerimeterSpacing=5;endArrow=none;endFill=0;targetPerimeterSpacing=5;exitX=1;exitY=0.5;exitDx=0;exitDy=0;entryX=0;entryY=0.5;entryDx=0;entryDy=0;" parent="1" target="axStD_DV7LErkX4Y_dTy-44" edge="1">
          <mxGeometry relative="1" as="geometry">
            <mxPoint x="1106" y="143.41" as="sourcePoint" />
            <mxPoint x="1198" y="115.99999999999977" as="targetPoint" />
          </mxGeometry>
        </mxCell>
        <mxCell id="axStD_DV7LErkX4Y_dTy-44" value="" style="shape=image;verticalLabelPosition=bottom;verticalAlign=top;imageAspect=0;aspect=fixed;image=data:image/svg+xml,PHN2ZyB4bWxucz0iaHR0cDovL3d3dy53My5vcmcvMjAwMC9zdmciIHZlcnNpb249IjEiIHZpZXdCb3g9IjAgMCA0OCA0OCIgZW5hYmxlLWJhY2tncm91bmQ9Im5ldyAwIDAgNDggNDgiPiYjeGE7ICAgIDxwYXRoIGZpbGw9IiNGRjk4MDAiIGQ9Ik0yMiwzOGMtNC44LDAtNS03LTUtN3YtNmgxMHY2QzI3LDMxLDI2LjgsMzgsMjIsMzh6Ii8+JiN4YTsgICAgPGcgZmlsbD0iI0ZGQTcyNiI+JiN4YTsgICAgICAgIDxjaXJjbGUgY3g9IjMxIiBjeT0iMTkiIHI9IjIiLz4mI3hhOyAgICAgICAgPGNpcmNsZSBjeD0iMTMiIGN5PSIxOSIgcj0iMiIvPiYjeGE7ICAgIDwvZz4mI3hhOyAgICA8cGF0aCBmaWxsPSIjRkZCNzREIiBkPSJNMzEsMTNjMC03LjYtMTgtNS0xOCwwYzAsMS4xLDAsNS45LDAsN2MwLDUsNCw5LDksOXM5LTQsOS05QzMxLDE4LjksMzEsMTQuMSwzMSwxM3oiLz4mI3hhOyAgICA8cGF0aCBmaWxsPSIjNDI0MjQyIiBkPSJNMjIsNGMtNi4xLDAtMTAsNC45LTEwLDExYzAsMC44LDAsMi4zLDAsMi4zbDIsMS43di01bDEyLTRsNCw0djVsMi0xLjdjMCwwLDAtMS41LDAtMi4zYzAtNC0xLTgtNi05bC0xLTIgSDIyeiIvPiYjeGE7ICAgIDxnIGZpbGw9IiM3ODQ3MTkiPiYjeGE7ICAgICAgICA8Y2lyY2xlIGN4PSIyNiIgY3k9IjE5IiByPSIxIi8+JiN4YTsgICAgICAgIDxjaXJjbGUgY3g9IjE4IiBjeT0iMTkiIHI9IjEiLz4mI3hhOyAgICA8L2c+JiN4YTsgICAgPHBhdGggZmlsbD0iIzAwOTY4OCIgZD0iTTI3LDMxTDI3LDMxYzAsMC0xLjgsMi01LDJzLTUtMi01LTJTNiwzMyw2LDQ0aDMyQzM4LDMzLDI3LDMxLDI3LDMxeiIvPiYjeGE7ICAgIDxnIGZpbGw9IiNGRjk4MDAiPiYjeGE7ICAgICAgICA8cmVjdCB4PSIzNi4xIiB5PSI2LjEiIHRyYW5zZm9ybT0ibWF0cml4KC43MDcgLjcwNyAtLjcwNyAuNzA3IDE5Ljc4NyAtMjUuNzcpIiB3aWR0aD0iOS45IiBoZWlnaHQ9IjkuOSIvPiYjeGE7ICAgICAgICA8cmVjdCB4PSIzNiIgeT0iNiIgd2lkdGg9IjEwIiBoZWlnaHQ9IjEwIi8+JiN4YTsgICAgPC9nPiYjeGE7ICAgIDxjaXJjbGUgZmlsbD0iI0ZGRUIzQiIgY3g9IjQxIiBjeT0iMTEiIHI9IjMiLz4mI3hhOzwvc3ZnPg==;" parent="1" vertex="1">
          <mxGeometry x="1229.33" y="-70" width="48" height="48" as="geometry" />
        </mxCell>
        <mxCell id="axStD_DV7LErkX4Y_dTy-45" value="" style="shape=image;verticalLabelPosition=bottom;verticalAlign=top;imageAspect=0;aspect=fixed;image=data:image/svg+xml,PHN2ZyB4bWxucz0iaHR0cDovL3d3dy53My5vcmcvMjAwMC9zdmciIHZlcnNpb249IjEiIHZpZXdCb3g9IjAgMCA0OCA0OCIgZW5hYmxlLWJhY2tncm91bmQ9Im5ldyAwIDAgNDggNDgiPiYjeGE7ICAgIDxwYXRoIGZpbGw9IiM1NDZFN0EiIGQ9Ik00NCwzMEg0VjExYzAtMi4yLDEuOC00LDQtNGgzMmMyLjIsMCw0LDEuOCw0LDRWMzB6Ii8+JiN4YTsgICAgPHBhdGggZmlsbD0iIzY0QjVGNiIgZD0iTTQwLDI3SDhjLTAuNiwwLTEtMC40LTEtMVYxMWMwLTAuNiwwLjQtMSwxLTFoMzJjMC42LDAsMSwwLjQsMSwxdjE1QzQxLDI2LjYsNDAuNiwyNyw0MCwyN3oiLz4mI3hhOyAgICA8cGF0aCBmaWxsPSIjNzg5MDlDIiBkPSJNNDAsNDFIOGMtMi4yLDAtNC0xLjgtNC00di03aDQwdjdDNDQsMzkuMiw0Mi4yLDQxLDQwLDQxeiIvPiYjeGE7ICAgIDxnIGZpbGw9IiMzNzQ3NEYiPiYjeGE7ICAgICAgICA8cmVjdCB4PSIyNyIgeT0iMzQiIHdpZHRoPSIxMiIgaGVpZ2h0PSIyIi8+JiN4YTsgICAgICAgIDxyZWN0IHg9IjkiIHk9IjM0IiB3aWR0aD0iMTIiIGhlaWdodD0iMiIvPiYjeGE7ICAgICAgICA8cGF0aCBkPSJNMTgsMzVjMCwxLjEtMS4zLDItMywycy0zLTAuOS0zLTJIMTh6Ii8+JiN4YTsgICAgPC9nPiYjeGE7PC9zdmc+;" parent="1" vertex="1">
          <mxGeometry x="1238" y="168" width="48" height="48" as="geometry" />
        </mxCell>
        <mxCell id="axStD_DV7LErkX4Y_dTy-46" style="edgeStyle=none;rounded=0;orthogonalLoop=1;jettySize=auto;html=1;sourcePerimeterSpacing=5;endArrow=none;endFill=0;targetPerimeterSpacing=5;exitX=1;exitY=0.5;exitDx=0;exitDy=0;entryX=0;entryY=0.5;entryDx=0;entryDy=0;" parent="1" source="axStD_DV7LErkX4Y_dTy-40" target="axStD_DV7LErkX4Y_dTy-45" edge="1">
          <mxGeometry relative="1" as="geometry">
            <mxPoint x="1084" y="208" as="sourcePoint" />
            <mxPoint x="1176" y="180" as="targetPoint" />
          </mxGeometry>
        </mxCell>
        <mxCell id="axStD_DV7LErkX4Y_dTy-48" value="&lt;div&gt;&lt;font style=&quot;font-size: 25px;&quot;&gt;&lt;b&gt;x&amp;nbsp;&lt;/b&gt;&lt;/font&gt;&lt;b style=&quot;font-size: 25px; background-color: transparent; color: light-dark(rgb(0, 0, 0), rgb(255, 255, 255));&quot;&gt;15&lt;/b&gt;&lt;/div&gt;" style="text;strokeColor=none;align=center;fillColor=none;html=1;verticalAlign=middle;whiteSpace=wrap;rounded=0;" parent="1" vertex="1">
          <mxGeometry x="1277.33" y="-61" width="60" height="30" as="geometry" />
        </mxCell>
        <mxCell id="axStD_DV7LErkX4Y_dTy-50" value="&lt;div&gt;&lt;font style=&quot;font-size: 25px;&quot;&gt;&lt;b&gt;x&amp;nbsp;&lt;/b&gt;&lt;/font&gt;&lt;b style=&quot;font-size: 25px; background-color: transparent; color: light-dark(rgb(0, 0, 0), rgb(255, 255, 255));&quot;&gt;15&lt;/b&gt;&lt;/div&gt;" style="text;strokeColor=none;align=center;fillColor=none;html=1;verticalAlign=middle;whiteSpace=wrap;rounded=0;" parent="1" vertex="1">
          <mxGeometry x="1294" y="177" width="60" height="30" as="geometry" />
        </mxCell>
        <mxCell id="8Q7W19kcbxquftpbm8od-1" value="" style="endArrow=none;html=1;rounded=0;entryX=0.5;entryY=1;entryDx=0;entryDy=0;exitX=0.5;exitY=0;exitDx=0;exitDy=0;" edge="1" parent="1" source="8Q7W19kcbxquftpbm8od-86" target="axStD_DV7LErkX4Y_dTy-32">
          <mxGeometry width="50" height="50" relative="1" as="geometry">
            <mxPoint x="-110" y="553" as="sourcePoint" />
            <mxPoint x="-90" y="722.9999999999998" as="targetPoint" />
          </mxGeometry>
        </mxCell>
        <mxCell id="8Q7W19kcbxquftpbm8od-86" value="" style="shape=image;verticalLabelPosition=bottom;verticalAlign=top;imageAspect=0;aspect=fixed;image=data:image/svg+xml,PHN2ZyB4bWxucz0iaHR0cDovL3d3dy53My5vcmcvMjAwMC9zdmciIHZlcnNpb249IjEiIHZpZXdCb3g9IjAgMCA0OCA0OCIgZW5hYmxlLWJhY2tncm91bmQ9Im5ldyAwIDAgNDggNDgiPiYjeGE7ICAgIDxwYXRoIGZpbGw9IiM1NDZFN0EiIGQ9Ik00LDI4VjhjMC0yLjIsMS44LTQsNC00aDI4YzIuMiwwLDQsMS44LDQsNHYyMGMwLDIuMi0xLjgsNC00LDRIOEM1LjgsMzIsNCwzMC4yLDQsMjh6Ii8+JiN4YTsgICAgPHBhdGggZmlsbD0iI0JCREVGQiIgZD0iTTM2LDdIOEM3LjQsNyw3LDcuNCw3LDh2MjBjMCwwLjYsMC40LDEsMSwxaDI4YzAuNiwwLDEtMC40LDEtMVY4QzM3LDcuNCwzNi42LDcsMzYsN3oiLz4mI3hhOyAgICA8cGF0aCBmaWxsPSIjMzc0NzRGIiBkPSJNMzgsMzNINmMtMi4yLDAtNC0xLjgtNC00djBoNDB2MEM0MiwzMS4yLDQwLjIsMzMsMzgsMzN6Ii8+JiN4YTsgICAgPHBhdGggZmlsbD0iI0UzODkzOSIgZD0iTTI0LDQwVjE2YzAtMi4yLDEuOC00LDQtNGgxMmMyLjIsMCw0LDEuOCw0LDR2MjRjMCwyLjItMS44LDQtNCw0SDI4QzI1LjgsNDQsMjQsNDIuMiwyNCw0MHoiLz4mI3hhOyAgICA8cGF0aCBmaWxsPSIjRkZGM0UwIiBkPSJNNDAsMTVIMjhjLTAuNiwwLTEsMC40LTEsMXYyMmMwLDAuNiwwLjQsMSwxLDFoMTJjMC42LDAsMS0wLjQsMS0xVjE2QzQxLDE1LjQsNDAuNiwxNSw0MCwxNXoiLz4mI3hhOyAgICA8Y2lyY2xlIGZpbGw9IiNBNjY0MkEiIGN4PSIzNCIgY3k9IjQxLjUiIHI9IjEuNSIvPiYjeGE7PC9zdmc+;" vertex="1" parent="1">
          <mxGeometry x="-134" y="593" width="48" height="48" as="geometry" />
        </mxCell>
        <mxCell id="8Q7W19kcbxquftpbm8od-87" value="&lt;div&gt;&lt;font style=&quot;font-size: 25px;&quot;&gt;&lt;b&gt;x&lt;/b&gt;&lt;/font&gt;&lt;/div&gt;&lt;font style=&quot;font-size: 25px;&quot;&gt;&lt;b&gt;15&lt;/b&gt;&lt;/font&gt;" style="text;strokeColor=none;align=center;fillColor=none;html=1;verticalAlign=middle;whiteSpace=wrap;rounded=0;" vertex="1" parent="1">
          <mxGeometry x="-140" y="649" width="60" height="30" as="geometry" />
        </mxCell>
        <mxCell id="8Q7W19kcbxquftpbm8od-88" value="" style="endArrow=none;html=1;rounded=0;entryX=0.5;entryY=1;entryDx=0;entryDy=0;exitX=0.5;exitY=0;exitDx=0;exitDy=0;" edge="1" parent="1" source="8Q7W19kcbxquftpbm8od-89" target="axStD_DV7LErkX4Y_dTy-30">
          <mxGeometry width="50" height="50" relative="1" as="geometry">
            <mxPoint x="513" y="555" as="sourcePoint" />
            <mxPoint x="513" y="498" as="targetPoint" />
          </mxGeometry>
        </mxCell>
        <mxCell id="8Q7W19kcbxquftpbm8od-89" value="" style="shape=image;verticalLabelPosition=bottom;verticalAlign=top;imageAspect=0;aspect=fixed;image=data:image/svg+xml,PHN2ZyB4bWxucz0iaHR0cDovL3d3dy53My5vcmcvMjAwMC9zdmciIHZlcnNpb249IjEiIHZpZXdCb3g9IjAgMCA0OCA0OCIgZW5hYmxlLWJhY2tncm91bmQ9Im5ldyAwIDAgNDggNDgiPiYjeGE7ICAgIDxwYXRoIGZpbGw9IiM1NDZFN0EiIGQ9Ik00LDI4VjhjMC0yLjIsMS44LTQsNC00aDI4YzIuMiwwLDQsMS44LDQsNHYyMGMwLDIuMi0xLjgsNC00LDRIOEM1LjgsMzIsNCwzMC4yLDQsMjh6Ii8+JiN4YTsgICAgPHBhdGggZmlsbD0iI0JCREVGQiIgZD0iTTM2LDdIOEM3LjQsNyw3LDcuNCw3LDh2MjBjMCwwLjYsMC40LDEsMSwxaDI4YzAuNiwwLDEtMC40LDEtMVY4QzM3LDcuNCwzNi42LDcsMzYsN3oiLz4mI3hhOyAgICA8cGF0aCBmaWxsPSIjMzc0NzRGIiBkPSJNMzgsMzNINmMtMi4yLDAtNC0xLjgtNC00djBoNDB2MEM0MiwzMS4yLDQwLjIsMzMsMzgsMzN6Ii8+JiN4YTsgICAgPHBhdGggZmlsbD0iI0UzODkzOSIgZD0iTTI0LDQwVjE2YzAtMi4yLDEuOC00LDQtNGgxMmMyLjIsMCw0LDEuOCw0LDR2MjRjMCwyLjItMS44LDQtNCw0SDI4QzI1LjgsNDQsMjQsNDIuMiwyNCw0MHoiLz4mI3hhOyAgICA8cGF0aCBmaWxsPSIjRkZGM0UwIiBkPSJNNDAsMTVIMjhjLTAuNiwwLTEsMC40LTEsMXYyMmMwLDAuNiwwLjQsMSwxLDFoMTJjMC42LDAsMS0wLjQsMS0xVjE2QzQxLDE1LjQsNDAuNiwxNSw0MCwxNXoiLz4mI3hhOyAgICA8Y2lyY2xlIGZpbGw9IiNBNjY0MkEiIGN4PSIzNCIgY3k9IjQxLjUiIHI9IjEuNSIvPiYjeGE7PC9zdmc+;" vertex="1" parent="1">
          <mxGeometry x="470" y="587" width="48" height="48" as="geometry" />
        </mxCell>
        <mxCell id="8Q7W19kcbxquftpbm8od-90" value="&lt;div&gt;&lt;font style=&quot;font-size: 25px;&quot;&gt;&lt;b&gt;x&lt;/b&gt;&lt;/font&gt;&lt;/div&gt;&lt;font style=&quot;font-size: 25px;&quot;&gt;&lt;b&gt;15&lt;/b&gt;&lt;/font&gt;" style="text;strokeColor=none;align=center;fillColor=none;html=1;verticalAlign=middle;whiteSpace=wrap;rounded=0;" vertex="1" parent="1">
          <mxGeometry x="464" y="643" width="60" height="30" as="geometry" />
        </mxCell>
        <mxCell id="8Q7W19kcbxquftpbm8od-91" value="" style="endArrow=none;html=1;rounded=0;entryX=0.5;entryY=1;entryDx=0;entryDy=0;exitX=0.5;exitY=0;exitDx=0;exitDy=0;" edge="1" parent="1" source="8Q7W19kcbxquftpbm8od-92">
          <mxGeometry width="50" height="50" relative="1" as="geometry">
            <mxPoint x="1051.33" y="545" as="sourcePoint" />
            <mxPoint x="1051.33" y="488" as="targetPoint" />
          </mxGeometry>
        </mxCell>
        <mxCell id="8Q7W19kcbxquftpbm8od-92" value="" style="shape=image;verticalLabelPosition=bottom;verticalAlign=top;imageAspect=0;aspect=fixed;image=data:image/svg+xml,PHN2ZyB4bWxucz0iaHR0cDovL3d3dy53My5vcmcvMjAwMC9zdmciIHZlcnNpb249IjEiIHZpZXdCb3g9IjAgMCA0OCA0OCIgZW5hYmxlLWJhY2tncm91bmQ9Im5ldyAwIDAgNDggNDgiPiYjeGE7ICAgIDxwYXRoIGZpbGw9IiM1NDZFN0EiIGQ9Ik00LDI4VjhjMC0yLjIsMS44LTQsNC00aDI4YzIuMiwwLDQsMS44LDQsNHYyMGMwLDIuMi0xLjgsNC00LDRIOEM1LjgsMzIsNCwzMC4yLDQsMjh6Ii8+JiN4YTsgICAgPHBhdGggZmlsbD0iI0JCREVGQiIgZD0iTTM2LDdIOEM3LjQsNyw3LDcuNCw3LDh2MjBjMCwwLjYsMC40LDEsMSwxaDI4YzAuNiwwLDEtMC40LDEtMVY4QzM3LDcuNCwzNi42LDcsMzYsN3oiLz4mI3hhOyAgICA8cGF0aCBmaWxsPSIjMzc0NzRGIiBkPSJNMzgsMzNINmMtMi4yLDAtNC0xLjgtNC00djBoNDB2MEM0MiwzMS4yLDQwLjIsMzMsMzgsMzN6Ii8+JiN4YTsgICAgPHBhdGggZmlsbD0iI0UzODkzOSIgZD0iTTI0LDQwVjE2YzAtMi4yLDEuOC00LDQtNGgxMmMyLjIsMCw0LDEuOCw0LDR2MjRjMCwyLjItMS44LDQtNCw0SDI4QzI1LjgsNDQsMjQsNDIuMiwyNCw0MHoiLz4mI3hhOyAgICA8cGF0aCBmaWxsPSIjRkZGM0UwIiBkPSJNNDAsMTVIMjhjLTAuNiwwLTEsMC40LTEsMXYyMmMwLDAuNiwwLjQsMSwxLDFoMTJjMC42LDAsMS0wLjQsMS0xVjE2QzQxLDE1LjQsNDAuNiwxNSw0MCwxNXoiLz4mI3hhOyAgICA8Y2lyY2xlIGZpbGw9IiNBNjY0MkEiIGN4PSIzNCIgY3k9IjQxLjUiIHI9IjEuNSIvPiYjeGE7PC9zdmc+;" vertex="1" parent="1">
          <mxGeometry x="988.3299999999999" y="590" width="48" height="48" as="geometry" />
        </mxCell>
        <mxCell id="8Q7W19kcbxquftpbm8od-93" value="&lt;div&gt;&lt;font style=&quot;font-size: 25px;&quot;&gt;&lt;b&gt;x&lt;/b&gt;&lt;/font&gt;&lt;/div&gt;&lt;font style=&quot;font-size: 25px;&quot;&gt;&lt;b&gt;15&lt;/b&gt;&lt;/font&gt;" style="text;strokeColor=none;align=center;fillColor=none;html=1;verticalAlign=middle;whiteSpace=wrap;rounded=0;" vertex="1" parent="1">
          <mxGeometry x="982.33" y="646" width="60" height="30" as="geometry" />
        </mxCell>
        <mxCell id="8Q7W19kcbxquftpbm8od-94" value="" style="endArrow=none;html=1;rounded=0;entryX=0.5;entryY=1;entryDx=0;entryDy=0;exitX=0.5;exitY=0;exitDx=0;exitDy=0;" edge="1" parent="1" source="8Q7W19kcbxquftpbm8od-95">
          <mxGeometry width="50" height="50" relative="1" as="geometry">
            <mxPoint x="1617" y="575" as="sourcePoint" />
            <mxPoint x="1617" y="518" as="targetPoint" />
          </mxGeometry>
        </mxCell>
        <mxCell id="8Q7W19kcbxquftpbm8od-95" value="" style="shape=image;verticalLabelPosition=bottom;verticalAlign=top;imageAspect=0;aspect=fixed;image=data:image/svg+xml,PHN2ZyB4bWxucz0iaHR0cDovL3d3dy53My5vcmcvMjAwMC9zdmciIHZlcnNpb249IjEiIHZpZXdCb3g9IjAgMCA0OCA0OCIgZW5hYmxlLWJhY2tncm91bmQ9Im5ldyAwIDAgNDggNDgiPiYjeGE7ICAgIDxwYXRoIGZpbGw9IiM1NDZFN0EiIGQ9Ik00LDI4VjhjMC0yLjIsMS44LTQsNC00aDI4YzIuMiwwLDQsMS44LDQsNHYyMGMwLDIuMi0xLjgsNC00LDRIOEM1LjgsMzIsNCwzMC4yLDQsMjh6Ii8+JiN4YTsgICAgPHBhdGggZmlsbD0iI0JCREVGQiIgZD0iTTM2LDdIOEM3LjQsNyw3LDcuNCw3LDh2MjBjMCwwLjYsMC40LDEsMSwxaDI4YzAuNiwwLDEtMC40LDEtMVY4QzM3LDcuNCwzNi42LDcsMzYsN3oiLz4mI3hhOyAgICA8cGF0aCBmaWxsPSIjMzc0NzRGIiBkPSJNMzgsMzNINmMtMi4yLDAtNC0xLjgtNC00djBoNDB2MEM0MiwzMS4yLDQwLjIsMzMsMzgsMzN6Ii8+JiN4YTsgICAgPHBhdGggZmlsbD0iI0UzODkzOSIgZD0iTTI0LDQwVjE2YzAtMi4yLDEuOC00LDQtNGgxMmMyLjIsMCw0LDEuOCw0LDR2MjRjMCwyLjItMS44LDQtNCw0SDI4QzI1LjgsNDQsMjQsNDIuMiwyNCw0MHoiLz4mI3hhOyAgICA8cGF0aCBmaWxsPSIjRkZGM0UwIiBkPSJNNDAsMTVIMjhjLTAuNiwwLTEsMC40LTEsMXYyMmMwLDAuNiwwLjQsMSwxLDFoMTJjMC42LDAsMS0wLjQsMS0xVjE2QzQxLDE1LjQsNDAuNiwxNSw0MCwxNXoiLz4mI3hhOyAgICA8Y2lyY2xlIGZpbGw9IiNBNjY0MkEiIGN4PSIzNCIgY3k9IjQxLjUiIHI9IjEuNSIvPiYjeGE7PC9zdmc+;" vertex="1" parent="1">
          <mxGeometry x="1593" y="586" width="48" height="48" as="geometry" />
        </mxCell>
        <mxCell id="8Q7W19kcbxquftpbm8od-96" value="&lt;div&gt;&lt;font style=&quot;font-size: 25px;&quot;&gt;&lt;b&gt;x&lt;/b&gt;&lt;/font&gt;&lt;/div&gt;&lt;font style=&quot;font-size: 25px;&quot;&gt;&lt;b&gt;15&lt;/b&gt;&lt;/font&gt;" style="text;strokeColor=none;align=center;fillColor=none;html=1;verticalAlign=middle;whiteSpace=wrap;rounded=0;" vertex="1" parent="1">
          <mxGeometry x="1587" y="642" width="60" height="30" as="geometry" />
        </mxCell>
        <mxCell id="8Q7W19kcbxquftpbm8od-97" style="edgeStyle=none;rounded=0;orthogonalLoop=1;jettySize=auto;html=1;sourcePerimeterSpacing=5;endArrow=none;endFill=0;targetPerimeterSpacing=5;strokeWidth=3;" edge="1" parent="1">
          <mxGeometry relative="1" as="geometry">
            <mxPoint x="860" y="692.5" as="sourcePoint" />
            <mxPoint x="860" y="541.5" as="targetPoint" />
          </mxGeometry>
        </mxCell>
        <mxCell id="8Q7W19kcbxquftpbm8od-98" style="edgeStyle=none;rounded=0;orthogonalLoop=1;jettySize=auto;html=1;sourcePerimeterSpacing=5;endArrow=none;endFill=0;targetPerimeterSpacing=5;strokeWidth=3;" edge="1" parent="1">
          <mxGeometry relative="1" as="geometry">
            <mxPoint x="1420" y="686.5" as="sourcePoint" />
            <mxPoint x="1420" y="535.5" as="targetPoint" />
          </mxGeometry>
        </mxCell>
        <mxCell id="8Q7W19kcbxquftpbm8od-100" style="edgeStyle=none;rounded=0;orthogonalLoop=1;jettySize=auto;html=1;sourcePerimeterSpacing=5;endArrow=none;endFill=0;targetPerimeterSpacing=5;exitX=1;exitY=0.5;exitDx=0;exitDy=0;" edge="1" parent="1" source="axStD_DV7LErkX4Y_dTy-40" target="8Q7W19kcbxquftpbm8od-102">
          <mxGeometry relative="1" as="geometry">
            <mxPoint x="1116" y="153.41" as="sourcePoint" />
            <mxPoint x="1240" y="120" as="targetPoint" />
          </mxGeometry>
        </mxCell>
        <mxCell id="8Q7W19kcbxquftpbm8od-102" value="" style="shape=image;verticalLabelPosition=bottom;verticalAlign=top;imageAspect=0;aspect=fixed;image=data:image/svg+xml,PHN2ZyB4bWxucz0iaHR0cDovL3d3dy53My5vcmcvMjAwMC9zdmciIHZlcnNpb249IjEiIHZpZXdCb3g9IjAgMCA0OCA0OCIgZW5hYmxlLWJhY2tncm91bmQ9Im5ldyAwIDAgNDggNDgiPiYjeGE7ICAgIDxnIGZpbGw9IiNEMUM0RTkiPiYjeGE7ICAgICAgICA8cGF0aCBkPSJNMzgsN0gxMEM4LjksNyw4LDcuOSw4LDl2NmMwLDEuMSwwLjksMiwyLDJoMjhjMS4xLDAsMi0wLjksMi0yVjlDNDAsNy45LDM5LjEsNywzOCw3eiIvPiYjeGE7ICAgICAgICA8cGF0aCBkPSJNMzgsMTlIMTBjLTEuMSwwLTIsMC45LTIsMnY2YzAsMS4xLDAuOSwyLDIsMmgyOGMxLjEsMCwyLTAuOSwyLTJ2LTZDNDAsMTkuOSwzOS4xLDE5LDM4LDE5eiIvPiYjeGE7ICAgICAgICA8cGF0aCBkPSJNMzgsMzFIMTBjLTEuMSwwLTIsMC45LTIsMnY2YzAsMS4xLDAuOSwyLDIsMmgyOGMxLjEsMCwyLTAuOSwyLTJ2LTZDNDAsMzEuOSwzOS4xLDMxLDM4LDMxeiIvPiYjeGE7ICAgIDwvZz4mI3hhOyAgICA8Y2lyY2xlIGZpbGw9IiM0M0EwNDciIGN4PSIzOCIgY3k9IjM4IiByPSIxMCIvPiYjeGE7ICAgIDxnIGZpbGw9IiNmZmYiPiYjeGE7ICAgICAgICA8cmVjdCB4PSIzNiIgeT0iMzIiIHdpZHRoPSI0IiBoZWlnaHQ9IjEyIi8+JiN4YTsgICAgICAgIDxyZWN0IHg9IjMyIiB5PSIzNiIgd2lkdGg9IjEyIiBoZWlnaHQ9IjQiLz4mI3hhOyAgICA8L2c+JiN4YTs8L3N2Zz4=;" vertex="1" parent="1">
          <mxGeometry x="1238" y="80" width="48" height="48" as="geometry" />
        </mxCell>
        <mxCell id="8Q7W19kcbxquftpbm8od-103" value="&lt;b style=&quot;&quot;&gt;&lt;font style=&quot;font-size: 15px;&quot;&gt;Carpeta en red&lt;/font&gt;&lt;/b&gt;" style="text;strokeColor=none;align=center;fillColor=none;html=1;verticalAlign=middle;whiteSpace=wrap;rounded=0;" vertex="1" parent="1">
          <mxGeometry x="1286" y="89" width="100" height="30" as="geometry" />
        </mxCell>
        <mxCell id="8Q7W19kcbxquftpbm8od-104" value="" style="shape=image;verticalLabelPosition=bottom;verticalAlign=top;imageAspect=0;aspect=fixed;image=data:image/svg+xml,PHN2ZyB4bWxucz0iaHR0cDovL3d3dy53My5vcmcvMjAwMC9zdmciIHZlcnNpb249IjEiIHZpZXdCb3g9IjAgMCA0OCA0OCIgZW5hYmxlLWJhY2tncm91bmQ9Im5ldyAwIDAgNDggNDgiPiYjeGE7ICAgIDxyZWN0IHg9IjkiIHk9IjExIiBmaWxsPSIjNDI0MjQyIiB3aWR0aD0iMzAiIGhlaWdodD0iMyIvPiYjeGE7ICAgIDxwYXRoIGZpbGw9IiM2MTYxNjEiIGQ9Ik00LDI1aDQwdi03YzAtMi4yLTEuOC00LTQtNEg4Yy0yLjIsMC00LDEuOC00LDRWMjV6Ii8+JiN4YTsgICAgPHBhdGggZmlsbD0iIzQyNDI0MiIgZD0iTTgsMzZoMzJjMi4yLDAsNC0xLjgsNC00di04SDR2OEM0LDM0LjIsNS44LDM2LDgsMzZ6Ii8+JiN4YTsgICAgPGNpcmNsZSBmaWxsPSIjMDBFNjc2IiBjeD0iNDAiIGN5PSIxOCIgcj0iMSIvPiYjeGE7ICAgIDxyZWN0IHg9IjExIiB5PSI0IiBmaWxsPSIjOTBDQUY5IiB3aWR0aD0iMjYiIGhlaWdodD0iMTAiLz4mI3hhOyAgICA8cGF0aCBmaWxsPSIjMjQyNDI0IiBkPSJNMzcuNSwzMWgtMjdDOS43LDMxLDksMzAuMyw5LDI5LjV2MGMwLTAuOCwwLjctMS41LDEuNS0xLjVoMjdjMC44LDAsMS41LDAuNywxLjUsMS41djAgQzM5LDMwLjMsMzguMywzMSwzNy41LDMxeiIvPiYjeGE7ICAgIDxyZWN0IHg9IjExIiB5PSIzMSIgZmlsbD0iIzkwQ0FGOSIgd2lkdGg9IjI2IiBoZWlnaHQ9IjExIi8+JiN4YTsgICAgPHJlY3QgeD0iMTEiIHk9IjI5IiBmaWxsPSIjNDJBNUY1IiB3aWR0aD0iMjYiIGhlaWdodD0iMiIvPiYjeGE7ICAgIDxnIGZpbGw9IiMxOTc2RDIiPiYjeGE7ICAgICAgICA8cmVjdCB4PSIxNiIgeT0iMzMiIHdpZHRoPSIxNyIgaGVpZ2h0PSIyIi8+JiN4YTsgICAgICAgIDxyZWN0IHg9IjE2IiB5PSIzNyIgd2lkdGg9IjEzIiBoZWlnaHQ9IjIiLz4mI3hhOyAgICA8L2c+JiN4YTs8L3N2Zz4=;" vertex="1" parent="1">
          <mxGeometry x="1238" y="10" width="48" height="48" as="geometry" />
        </mxCell>
        <mxCell id="8Q7W19kcbxquftpbm8od-105" style="edgeStyle=none;rounded=0;orthogonalLoop=1;jettySize=auto;html=1;sourcePerimeterSpacing=5;endArrow=none;endFill=0;targetPerimeterSpacing=5;entryX=0;entryY=0.75;entryDx=0;entryDy=0;" edge="1" parent="1" target="8Q7W19kcbxquftpbm8od-104">
          <mxGeometry relative="1" as="geometry">
            <mxPoint x="1110" y="140" as="sourcePoint" />
            <mxPoint x="1243" y="121" as="targetPoint" />
          </mxGeometry>
        </mxCell>
        <mxCell id="8Q7W19kcbxquftpbm8od-106" value="&lt;b style=&quot;&quot;&gt;&lt;font style=&quot;font-size: 15px;&quot;&gt;Impresora en&lt;/font&gt;&lt;/b&gt;&lt;div&gt;&lt;b style=&quot;&quot;&gt;&lt;font style=&quot;font-size: 15px;&quot;&gt;Red&lt;/font&gt;&lt;/b&gt;&lt;/div&gt;" style="text;strokeColor=none;align=center;fillColor=none;html=1;verticalAlign=middle;whiteSpace=wrap;rounded=0;" vertex="1" parent="1">
          <mxGeometry x="1286" y="19" width="100" height="30" as="geometry" />
        </mxCell>
      </root>
    </mxGraphModel>
  </diagram>
</mxfile>
